<svg width="24" height="24" fill="none" xmlns="http://www.w3.org/2000/svg">
  <path d="M1 12c1 4 2.5 6.5 4 7.5-2-4-2-5.5-2-7.5 0-5 4.547-7 9-7s9 2 9 7c0 2 0 3.5-2 7.5 1.5-1 3-3.5 4-7.5V6c-4.059-.995-6.509-2.547-11-6C7.509 3.453 5.059 5.005 1 6v6z" fill="#fff"/>
  <path d="M3 15.846C3.818 19.128 5.045 21.18 6.273 22c-1.637-3.282-1.637-4.513-1.637-6.154 0-4.102 3.72-5.743 7.364-5.743 3.643 0 7.364 1.64 7.364 5.743 0 1.641 0 2.872-1.637 6.154 1.227-.82 2.455-2.872 3.273-6.154v-4.923c-3.32-.816-5.325-2.09-9-4.923-3.675 2.833-5.68 4.107-9 4.923v4.923z" fill="#fff"/>
  <path d="M4.5 19.385c.636 2.461 2.09 4 3.045 4.615-1.272-2.462-1.272-3.385-1.272-4.615 0-3.077 2.893-4.308 5.727-4.308 2.833 0 5.727 1.23 5.727 4.308 0 1.23 0 2.153-1.273 4.615.955-.615 2.41-2.154 3.046-4.615v-3.693C16.917 15.08 14.858 14.125 12 12c-2.858 2.125-4.917 3.08-7.5 3.692v3.693z" fill="#fff"/>
</svg>
