<svg width="24" height="24" fill="none" xmlns="http://www.w3.org/2000/svg">
  <path d="M16 2C13 2 8.5 5 1 7c3 1.5 2 4 4 4 .5-2.5 4.762-4.384 9.5-5.5-1.049 1.684-2.062 2.69-4 4.5 3.149-1.596 6-3 7.5-3s1.979.372 3 1c.924-.198 1.224-.559 1.5-1.5C20 4.5 19.5 2 16 2z" fill="#fff"/>
  <path d="M8.5 9c-1.412 1.088-1.656 1.77-2 3-.5 3 1.036 4.803 1 8-.204.96-.63 1.402-2 2m-3-8c9 0 8 6 14 6m4 1c-3-1-.5-4.5-2-8m4.5-1c-2 2-7.423-3.38-11.5 0" stroke="#fff" stroke-linecap="round" stroke-linejoin="round"/>
</svg>
