<svg width="24" height="24" fill="none" xmlns="http://www.w3.org/2000/svg">
  <path d="M11.784 1.875c-4.012.021-7.891 1.63-9.636 3.714-.277.598-.345.955 0 1.705C1.33 7.508.402 8.43.257 9.227c.254 2.466.344 3.84.29 6.252.837.777 1.257 1.124 1.819 1.402v1.1c1.236 2.387 5.462 3.767 9.418 3.903 4.314.147 8.545-.645 10.4-3.904-.041-.665-.075-1.027.145-1.932.642-.405.946-.698 1.273-1.478l.218-6.935c-1.179-.614-1.324-.923-1.636-1.478-.51-2.653-6.033-4.306-10.4-4.282z" fill="#12181E"/>
  <path d="M3.53 17.525c-.478-2.812-.647-4.779-.837-8.716-.116 2.92-.125 4.628.218 8.148L.584 15.669.402 9.264c.152-.775.885-1.158 1.927-1.895-.384-.621-.128-.995 0-1.667 3.31-2.653 5.891-3.486 9.746-3.676 4.138.199 6.217.96 8.872 2.918l1.164 1.895 1.455 1.25.109 6.784-1.164 1.326-.4 1.705-2.255 2.009c-2.867 1.57-5.398 1.685-10.363 1.516-3.125-.397-4.575-1.05-6.69-2.88l-.4-.53.29-.304.618.114.218-.304z" fill="#414B59"/>
  <path fill-rule="evenodd" clip-rule="evenodd" d="M11.697 2.676c1.172.046 2.196.108 3.496.405.518.118.748.164 1.536.385.387.109.546.19 1.322.563 1.168.598 1.84 1.573 1.643 2.38-.107.437-.26.713-.584 1.055-.157.166-.261.253-.614.51-1.182.862-2.922 1.294-4.286 1.45 2.23.228 5.32-1.145 5.987-2.982l.01-.357C20.27 4 17.399 3.316 15.858 2.95c-2.146-.508-3.855-.356-4.16-.275zm-4.895.714c-.838.341-1.32.764-2.036 1.402-.873.986-.8 2.312.287 3.185.278.195.554.39.875.5.455.155.577.186.577.144 0-.026-.126-.145-.173-.164a16.19 16.19 0 01-.852-.594c-.72-.565-1.042-1.265-.776-2.205.22-.776.954-1.157 1.563-1.564 1.153-.769 1.88-.893 2.93-1.102-.678-.03-1.74.17-2.395.398zm16.44 6.371c-.073.082-.082.13-.044.231.063.169-.05.63-.126.776-.057.111-.056.085-.066 1.988-.004.865.003 1.307.024 1.362a.72.72 0 01.03.207c0 .176.074.24.098.084.01-.06.042-.165.071-.23.049-.107.054-.187.054-.734 0-.558.005-.622.056-.71.053-.094.054-.147.045-1.564-.01-1.56-.01-1.558-.142-1.41zm-22.734.804c.078 1.276.185 3.095.185 4.421-.137.234 1.294 1.463 1.307.963.021-.821-.042-1.636-.045-2.456-.002-.458-.08-.907-.14-1.359-.101-.75-.395-.993-.682-1.202-.287-.21-.58-.414-.625-.367zm21.546 2.053c-.246.287-.324.68-.68.87-.44.235-1.122.366-1.622.428-.443.055-.697.188-.742.387-.032.145-.029 1.817.006 2.526.092 1.92.083 1.8.143 1.87.197.226 1.238.025 1.745-.338.36-.257.81-.76.955-1.126.11-.278.113-.574.11-.881-.002-.366.003-.413.066-.559.35-.805.199-1.906.273-2.787.047-.562-.02-.665-.254-.39zm-11.557 7.08c1.27 1.251 3.34.85 4.75.152.173-.62.221-3.696-.143-4.51-.084-.126-.305-.082-.838.042-1.313.305-2.46-.075-3.736-.231-.092 1.511-.044 3.033-.033 4.547z" fill="#E3B779"/>
  <path d="M9.767 3.461c.76-.16 3.447-.252 4.29-.145 1.566.2 2.845.654 4.107 1.634.827.642.833 1.634.013 2.374-1.71 1.546-3.527 1.385-3.4 1.519.68.06 4.363-.524 4.363-2.91-.063-.592-.384-1.056-1.05-1.519-1.031-.718-2.478-1.177-3.668-1.318A18.435 18.435 0 0012.032 3c-2.114.076-4.632.18-6.254 1.711-1.097 1.034-1.03 2.252.186 3.054.298.196 1.167.464 1.162.46-.577-.376-1.291-.818-1.557-1.498-.338-.864.327-1.65.982-2.09.983-.662 2.088-.936 3.216-1.176z" fill="#E3B779"/>
  <path fill-rule="evenodd" clip-rule="evenodd" d="M15.289 4.203c-.028.046-.29.164-.418.188a.45.45 0 00-.142.046 2.323 2.323 0 01-.293.116 2.35 2.35 0 00-.292.116.527.527 0 01-.14.052 6.13 6.13 0 00-.431.15c-.177.067-.378.142-.447.165-.07.024-.189.07-.265.103-.077.033-.228.09-.335.126a10.89 10.89 0 00-.433.16c-.13.05-.294.112-.363.135-.18.06-.483.176-.726.277a7.957 7.957 0 01-.413.157 2.716 2.716 0 00-.313.127.504.504 0 01-.152.058c-.043 0-.46.169-.616.248a1.552 1.552 0 01-.223.084c-.077.022-.259.09-.405.15-.37.152-.611.244-.726.278a1.446 1.446 0 00-.181.07l-.251.115a2.367 2.367 0 00-.21.104c-.267.179-.335.163-.767-.174a2.2 2.2 0 00-.213-.145c-.219-.125-.61-.668-.611-.846a.815.815 0 00-.028-.174c-.04-.147.016-.452.113-.606.043-.069.101-.183.13-.254.027-.071.066-.13.085-.13.02 0 .035-.02.035-.044 0-.025.019-.052.042-.062.023-.009.042-.028.042-.042 0-.063-.08-.014-.22.134a.928.928 0 01-.175.16c-.012 0-.056.068-.097.152-.04.084-.104.19-.14.235-.229.285.072 1.185.48 1.433.065.04.135.093.155.118.019.024.086.07.148.103a.905.905 0 01.212.169c.053.06.129.12.167.132a.85.85 0 01.168.09.636.636 0 00.196.088c.053.01.118.038.144.061a.443.443 0 00.158.069.519.519 0 01.2.11c.141.134.306.14.267.01-.011-.037-.053-.068-.105-.08-.231-.053-.44-.22-.403-.321.02-.055.185-.158.253-.158.03 0 .105-.025.167-.056.115-.057.302-.13.812-.312.153-.055.303-.114.331-.13.03-.017.111-.048.182-.07a7.3 7.3 0 00.436-.158c.169-.066.376-.144.46-.174.218-.078.671-.25.754-.286.039-.017.127-.05.196-.074a25.326 25.326 0 001.005-.385l.447-.18c.1-.04.283-.11.407-.154s.25-.095.28-.112c.028-.017.15-.065.271-.106.216-.075.314-.115.538-.222a.563.563 0 01.168-.054c.029 0 .14-.046.246-.102.107-.056.214-.102.238-.102a.43.43 0 00.144-.056.83.83 0 01.203-.076c.056-.01.108-.031.116-.045.008-.014.064-.039.123-.055.104-.03.158-.094.126-.149-.022-.036-.09-.033-.111.005zm1.525.63c.035.06.11.169.168.24.238.3.288.832.114 1.201-.15.317-.533.683-.995.95a1.44 1.44 0 00-.204.137.14.14 0 01-.086.04.894.894 0 00-.214.083 1.843 1.843 0 01-.25.104c-.124.032-.39.167-.414.21-.012.02-.065.046-.117.056a.335.335 0 00-.157.088l-.063.07h.087c.048 0 .13-.03.183-.067.052-.037.226-.11.385-.162.16-.053.378-.135.485-.184.108-.048.246-.104.307-.123.12-.039.514-.3.628-.419.039-.04.133-.114.21-.166.182-.124.414-.38.461-.508a1.04 1.04 0 01.099-.19c.165-.237.063-.813-.197-1.105a5.668 5.668 0 01-.15-.175c-.082-.104-.205-.188-.275-.188h-.068l.063.109zm-14.237.714c-.002.029-.021.06-.042.067-.03.013-.042.189-.059.857l-.02.84.092.134c.087.127.76.792 1.01.999.065.053.18.16.257.236.147.146.478.371.505.343.04-.04-.526-.664-1.265-1.396-.351-.348-.39-.424-.43-.83-.016-.171-.041-.327-.056-.346-.056-.07-.066-.735-.012-.776.032-.024.045-.062.036-.108-.007-.043-.014-.05-.016-.02zm-1.103 1.84c-.17.177-.709.42-.799.666-.013.038-.037.074-.05.08-.015.006-.035.043-.044.083-.01.04-.01.056-.002.036a.066.066 0 01.056-.036.04.04 0 00.04-.038c0-.042.146-.166.196-.166.017 0 .05-.02.074-.044.064-.068.12.022.09.144-.053.21-.146.441-.21.52-.092.114-.046.319.092.407.02.013.037.042.037.064 0 .142.476.397.78.416.243.016.364.07.514.23l.105.11-.02.328c-.012.219-.008.354.013.408.035.09.078.48.064.582-.018.136-.12.167-.418.128-.297-.04-.367-.018-.254.08a.821.821 0 00.377.148c.273 0 .335.582.415 3.898.007.296.026.585.042.64.099.342-.063.625-.284.495l-.112-.065-.063.069a.726.726 0 00-.109.264c-.059.252-.057.285.01.285.054 0 .056.02.058.415.002.228.009.399.016.38.008-.02.056-.05.108-.068.07-.024.096-.051.103-.108.013-.112.087-.149.182-.09.043.026.15.069.238.096.147.044.184.075.433.352.15.168.354.373.453.456.1.084.202.175.228.201.053.055.357.227.4.228a.61.61 0 01.152.088c.115.081.283.092.387.18.098.084.258.044.355.14a.238.238 0 00.146.058c.048 0 .166.039.264.087a.838.838 0 00.261.087c.047 0 .11.018.14.04.03.023.118.061.195.086.219.072.38.134.504.196.115.057.238.072.353.132.08.042.208.1.285.129.078.028.198.075.267.103.092.038.216.053.46.057.185.003.392.02.462.038.069.018.273.054.453.078.4.056.49.086.501.167.015.106.474.17 1.111.153.246-.006.497.003.58.021a.789.789 0 00.335-.003c.152-.027.212-.026.314.006.245.077 1.089-.02 1.089-.125 0-.034-.514-.127-.824-.148-.483-.033-.74-.118-.74-.246 0-.023-.034-.051-.077-.062a.303.303 0 01-.126-.073.176.176 0 00-.11-.054.88.88 0 01-.243-.1 1.98 1.98 0 00-.31-.133c-.275-.077-.445-.206-.546-.414l-.067-.137-.007-2.39c-.009-2.785-.047-2.517.333-2.334.519.25.741.267 1.097.082a.873.873 0 01.229-.055c.327-.038.407-.143.178-.234-.087-.035-.127-.068-.133-.112-.006-.043-.035-.069-.092-.081a5.056 5.056 0 01-.656-.318 5.547 5.547 0 00-.293-.15c-.803-.393-1.216-1.054-.579-.928a.99.99 0 01.195.055c.027.015.13.036.23.047.1.01.32.051.488.09.333.077 1.908.062 2.27-.022a.543.543 0 01.28-.002c.269.066 1.129.026 1.267-.059.066-.04.195-.086.288-.103.092-.016.285-.052.428-.08.572-.108.63.035.202.492-.153.163-.3.323-.328.356-.08.095-.296.264-.368.287-.051.018-.061.036-.048.091.013.053 0 .08-.054.117-.083.057-.09.13-.015.2a.23.23 0 01.062.128c.01.09.09.117.158.052a.56.56 0 01.186-.08c.077-.02.232-.093.344-.162.335-.206.31-.277.283.805-.013.488-.036 1.477-.053 2.197-.036 1.596-.046 1.874-.074 1.95-.034.092-.148.223-.296.338-.17.132-.341.313-.319.337.01.01.087.004.172-.012.143-.027.159-.024.196.03.053.08.052.087-.034.193-.117.146.046.167.455.06.048-.013.104-.013.123 0 .076.048.276-.091.292-.203a.821.821 0 01.07-.21c.106-.208.21-1.89.125-2.032-.013-.022-.025-.374-.028-.784-.004-.577-.015-.786-.05-.933a3.13 3.13 0 01-.058-.48 6.815 6.815 0 00-.032-.443c-.014-.106-.01-.166.014-.196a.093.093 0 00.012-.095 3.93 3.93 0 01-.041-.517c-.024-.569-.07-.984-.125-1.093a.396.396 0 01-.04-.138.435.435 0 00-.072-.165.682.682 0 01-.087-.192c-.02-.101-.041-.12-.212-.187-.132-.051-.135-.05-.408.025a7.517 7.517 0 01-.481.118c-.526.102-.972.19-1.1.218a9.56 9.56 0 01-.793.062c-.36.017-.679.045-.709.062a.291.291 0 01-.155.013 22.437 22.437 0 00-.744-.1c-.211-.028-.328-.054-1.06-.236-.571-.142-.588-.143-.702-.027a.872.872 0 01-.15.123c-.092.05-.166.309-.181.632-.008.154-.034.37-.059.48-.056.248-.077 1.273-.029 1.365.047.089.09.473.073.67-.007.095-.005.292.006.436l.049.684c.03.425.004.754.004 1.168 0 .157-.012.309-.025.337-.042.085-.092.792-.075 1.04.01.128.02.299.022.379-.012.096-.035.128-.098.154-.172.015-.267-.057-.29-.22-.025-.184-.053-.213-.204-.213-.07 0-.292-.005-.491-.011-.43-.014-.55.012-.682.15-.132.138-.23.136-.595-.013-.158-.064-.419-.16-.58-.212a2.973 2.973 0 01-.405-.16.942.942 0 00-.195-.084 6.28 6.28 0 01-.464-.179 3.935 3.935 0 00-.418-.158.368.368 0 01-.123-.047 1.716 1.716 0 00-.259-.1c-.476-.145-.722-.378-.502-.479.258-.118-.286-.737-.591-.674-.101.021-.151-.034-.126-.139.024-.098.18-.223.266-.213.045.005-.376-5.58-.45-6.03-.067-.405-.023-.448.242-.235.193.155.23.168.319.119.103-.058.068-.166-.079-.243a.804.804 0 01-.188-.135.92.92 0 00-.176-.137.416.416 0 01-.201-.36c0-.165.233-.067.507.212.185.189.365.292.582.332.053.01.178.058.275.106.098.047.23.093.294.102a.365.365 0 01.157.053.695.695 0 00.196.082c.28.08.359.107.437.15a.357.357 0 00.135.042c.03 0 .1.025.155.056.117.065.417.112.417.066 0-.017-.029-.039-.063-.05-.07-.02-.3-.109-.5-.192a.713.713 0 00-.208-.054.212.212 0 01-.12-.039 1.196 1.196 0 00-.404-.165.367.367 0 01-.15-.058.672.672 0 00-.21-.077 1.465 1.465 0 01-.297-.103 2.224 2.224 0 00-.298-.115c-.134-.035-.682-.585-.78-.783-.054-.11-.202-.26-.257-.26-.053 0-.09-.1-.11-.288-.014-.15-.03-.188-.114-.27-.198-.196-.258-.264-.258-.29 0-.046.095-.027.195.04l.318.204c.07.044.218.17.33.281.543.534.562.545 1.411.843.324.113.636.224.695.247.06.023.41.142.778.265.368.123.71.242.758.264a.454.454 0 00.118.042c.017 0 .11.028.205.064.198.072.555.09.613.03.027-.028.017-.036-.048-.036-.08 0-.447-.114-.613-.19a10.728 10.728 0 00-.684-.27 5.938 5.938 0 01-.293-.107 7.922 7.922 0 00-.335-.121.858.858 0 01-.168-.068.9.9 0 00-.181-.068 7.64 7.64 0 01-.433-.15 15 15 0 00-.405-.148 2.043 2.043 0 01-.181-.069l-.238-.108a2.144 2.144 0 01-.446-.263C3.459 9.274 2.866 8.7 2.29 8.09c-.264-.279-.302-.333-.342-.48-.068-.249-.076-.257-.218-.217-.1.027-.124.026-.143-.008-.028-.053-.06-.053-.113.002zm.065.4c0 .053-.005.057-.027.022-.035-.057-.035-.088 0-.088.015 0 .028.03.027.066zm6.73.196c0 .017.069.028.16.026.132-.003.145-.007.076-.026-.124-.033-.237-.033-.237 0zm.334.084c0 .041.069.059.304.08.26.022.333-.025.114-.074-.171-.038-.418-.041-.418-.006zm5.36.033c-.03.02.01.028.131.028.095 0 .18-.012.19-.028.023-.038-.264-.038-.32 0zm-4.63.06c-.221.045-.183.065.22.115l.467.06c.156.02.246.02.28 0 .042-.026.042-.03.003-.03a.251.251 0 01-.114-.058c-.052-.043-.133-.06-.345-.074a7.137 7.137 0 01-.334-.028.694.694 0 00-.178.016zm3.758.092l-.063.066.135.009c.132.009.394-.06.425-.113.039-.066-.432-.03-.497.038zm-11.267.012c.088.083.066.18-.046.201-.06.012-.103.04-.113.074-.01.034-.043.055-.085.055-.083 0-.088-.059-.012-.13.03-.03.056-.068.056-.086 0-.121.12-.19.2-.114zm9.593.177c.128.006.329.006.447 0 .118-.005.014-.01-.232-.01-.245 0-.342.005-.215.01zM1.21 8.783c.085.08.131.102.218.102.131 0 .128-.004.152.226.022.208.024.207-.203.136-.131-.04-.193-.083-.373-.256-.088-.086-.036-.307.073-.31.013 0 .073.046.133.102zm3.283.326c.039.008.063.034.063.067 0 .043.028.06.128.075.152.024.236-.028.096-.06a.773.773 0 01-.163-.061.298.298 0 00-.13-.037c-.05.003-.048.005.006.016zm.398.195c0 .045.16.075.24.045.036-.012.012-.028-.08-.052-.161-.042-.16-.042-.16.007zm-4.667.065c-.077.042-.075.172.004.255.016.016.029.11.029.21 0 .26.07.41.268.572.096.079.161.022.14-.123-.05-.363-.097-.55-.165-.656a1.178 1.178 0 01-.106-.21c-.034-.104-.057-.11-.17-.048zm5.073.067c-.02.034.086.07.127.044.022-.014.02-.028-.007-.045-.05-.033-.1-.033-.12 0zm15.226 1.042c-.05.157-.107.238-.183.258-.037.01-.152.083-.255.163-.103.08-.216.16-.25.176-.07.033-.074.046-.04.101.026.044.144.013.283-.075a.4.4 0 01.14-.063c.024 0 .108-.07.186-.157s.172-.162.208-.168c.053-.007.069-.03.076-.108.022-.242-.1-.335-.165-.127zm1.155.966c-.12.156-.23.554-.153.554.088 0 .284-.35.284-.508 0-.103-.07-.127-.131-.046zm-15.626.084c-.008.015.04.042.108.06.068.017.131.045.14.061.01.016.077.027.15.025.075-.002.1-.01.06-.017a.3.3 0 01-.125-.065c-.063-.059-.308-.106-.333-.064zm12.269.153c-.247.057-.328.107-.3.184.023.06.217.061.33 0a.818.818 0 01.256-.058c.119-.01.19-.032.23-.071.032-.032.074-.058.093-.058.02 0 .027-.013.018-.029-.027-.045-.367-.028-.627.032zm-.797.63a1.63 1.63 0 00-.034.27c-.012.185-.026.23-.091.305a.408.408 0 00-.097.244.935.935 0 01-.06.24c-.139.28-.207.998-.124 1.3.019.07.014.162-.016.32a3.338 3.338 0 00-.05.414.892.892 0 01-.028.227c-.012.02-.005.1.015.18.029.12.028.165-.002.253a.978.978 0 00-.036.268c0 .089-.015.229-.035.312-.02.084-.025.161-.012.175.086.09.128.852.056.994a.348.348 0 00-.03.133c0 .041-.013.075-.028.075-.054 0-.03.171.027.203.065.036.076.146.016.146-.063 0 .027.282.127.4.045.054.08.122.08.152s.013.064.029.073c.015.01.028.074.028.143 0 .103.012.13.07.163.038.021.07.049.07.06 0 .013.062.091.138.175l.14.153.105-.056a.505.505 0 00.138-.102c.025-.034.084-.048.214-.05.107-.002.24-.027.329-.063.082-.033.226-.079.32-.102.156-.038.37-.149.373-.193 0-.01-.059-.034-.131-.053-.176-.047-.255-.13-.192-.202.07-.08.056-.09-.112-.09-.217 0-.645-.086-.709-.143-.07-.062-.126-1.704-.123-3.61.002-1.559-.017-1.466.305-1.496.271-.026.308-.042.46-.197.07-.07.155-.147.19-.17.158-.106-.032-.465-.269-.508-.2-.036-.478-.137-.568-.207-.228-.174-.445-.236-.483-.136zm-4.607 8.387c-.01.016.002.029.025.029s.05-.013.06-.03c.009-.015-.002-.028-.025-.028-.024 0-.05.013-.06.029z" fill="#12181E"/>
  <path fill-rule="evenodd" clip-rule="evenodd" d="M11.333 3.101c-.568.03-.523.06.093.061.517.002.78.025.723.062-.128.084-.981.166-1.632.158a3.734 3.734 0 00-.545.019 2.628 2.628 0 01-.251.051c-.092.015-.28.066-.419.114a2.046 2.046 0 01-.299.089c-.031 0-.06.04-.081.116-.038.133-.042.135-.116.066-.076-.07-.394-.061-.542.016a.899.899 0 01-.244.075.428.428 0 00-.196.073.504.504 0 01-.157.087 1.89 1.89 0 00-.3.162c-.11.07-.222.136-.25.145-.072.024-.286.23-.286.277 0 .021-.022.056-.048.078-.052.043.065.04.131-.003.097-.063.106.036.014.156-.166.22-.09.361.12.225.092-.058.095.076.004.171-.116.122-.115.122-.16.014-.071-.167-.284.055-.284.296 0 .03-.025.13-.056.22-.112.333-.026.562.352.94.088.087.22.221.294.297.146.15.236.175.314.084.047-.053-.091-.236-.178-.236-.053 0-.4-.456-.491-.647-.153-.314-.11-.622.08-.586.157.029.273.016.347-.038.21-.156.315-.216.441-.255a.612.612 0 00.202-.103c.04-.04.099-.059.175-.059.065 0 .17-.03.247-.07.321-.17.435-.194.83-.175.317.015.385.01.53-.041.09-.032.247-.074.347-.093.1-.02.232-.052.294-.073.09-.03.14-.03.251-.002.167.043.563.038.607-.008.073-.076.553-.007.706.102.087.06.13.07.363.07.216 0 .264.007.264.043 0 .024-.01.043-.022.043a1.11 1.11 0 00-.188.116c-.094.065-.202.116-.246.116-.098.001-.194.053-.17.091.026.046.27-.003.327-.064.033-.036.09-.055.167-.056.065 0 .14-.019.17-.041a.453.453 0 01.163-.06.682.682 0 00.2-.074c.049-.03.176-.075.283-.101.107-.026.233-.065.279-.087a1.48 1.48 0 01.181-.068c.054-.015.437-.149.852-.297.78-.278.935-.358.935-.482 0-.115.203-.096.484.045.125.063.306.141.402.175.095.033.271.12.39.194.12.074.287.17.371.216.085.045.217.149.293.231.077.083.178.175.226.206a.61.61 0 01.164.216c.108.224.147.205.18-.086.015-.128.024-.146.08-.144.063.003.063.002-.012-.08-.068-.074-.233-.136-.303-.114-.08.026-.158 0-.295-.1a1.582 1.582 0 00-.285-.165 1.626 1.626 0 01-.244-.125.557.557 0 00-.134-.072.294.294 0 01-.099-.061 2.392 2.392 0 00-.38-.188 3.683 3.683 0 01-.37-.17 1.873 1.873 0 00-.258-.12.95.95 0 01-.297-.179c-.087-.087-.129-.105-.286-.126a.832.832 0 01-.275-.082c-.147-.095-.737-.206-1.432-.27a207.15 207.15 0 01-.963-.09 5.755 5.755 0 00-1.082-.025zm1.778.224a.425.425 0 01-.14.008c-.107-.002-.135-.01-.095-.026.05-.021.204-.01.235.018zm.613-.002c.096.096-.319.137-.434.043l-.068-.056.092-.013c.093-.013.39.005.41.026zm.827.188c.061.044.165.09.23.1.197.033.134.095-.077.076a.184.184 0 01-.111-.06c-.03-.035-.098-.058-.217-.07-.183-.018-.447-.094-.495-.142-.078-.077.557.014.67.096zm-1.717.001c.069.017.251.03.405.027l.432-.006c.261-.004.75.112.888.21a.447.447 0 00.202.087c.056 0 .119.034.194.104a.41.41 0 00.223.12c.138.02.14.037.01.105-.194.1-.47.098-.316-.003.092-.06.066-.079-.16-.12-.423-.078-.478-.077-.51.01-.033.09-.252.205-.345.18a9.951 9.951 0 01-.209-.06 1.105 1.105 0 00-.251-.043c-.766 0-1.034.016-1.187.068-.155.053-.17.053-.293.007a1.208 1.208 0 00-.625.006 1.5 1.5 0 01-.35.03c-.151 0-.31.014-.352.03a.649.649 0 01-.194.031.498.498 0 00-.242.076c-.108.065-.147.073-.276.057a.638.638 0 00-.329.045c-.154.054-.194.059-.287.03-.081-.026-.156-.026-.3-.001-.404.069-.74-.162-.383-.264a.858.858 0 00.249-.112c.042-.035.098-.064.123-.064.08 0 .167-.086.2-.198.067-.234.346-.32 1.128-.345.397-.014.425-.01.537.052l.117.067.106-.056c.152-.08 1.53-.134 1.795-.07zm2.508.3c.092.095.07.117-.113.108-.08-.003-.226-.14-.198-.186.03-.05.238.001.311.078zm-7.829 0c-.272.103-.963.454-1.052.535a1.041 1.041 0 01-.23.148c-.119.059-.573.526-.632.65a1.592 1.592 0 00-.147.405.429.429 0 01-.073.171c-.08.098-.078.468.005.66l.09.213c.1.24.827.956.827.814 0-.017-.022-.04-.048-.05a.605.605 0 01-.133-.1c-.212-.201-.28-.257-.314-.257-.023 0-.035-.042-.035-.124l.001-.123.053.065c.029.036.06.066.069.066.035 0 .013-.062-.04-.109-.03-.027-.056-.073-.056-.102 0-.059-.056-.068-.106-.016-.026.027-.033.018-.033-.038a.258.258 0 00-.041-.13c-.055-.076-.053-.202.004-.294.046-.072.045-.08-.031-.232l-.08-.158.05-.195c.059-.235.105-.318.2-.364.042-.02.093-.084.122-.153a.298.298 0 01.148-.169.868.868 0 00.205-.167c.059-.065.176-.166.26-.224a6.84 6.84 0 00.308-.226c.18-.143.666-.427.816-.477.103-.035.17-.091.1-.086-.02.002-.113.032-.207.067zm-2.586.064a.838.838 0 00-.147.11.35.35 0 01-.195.083.451.451 0 00-.234.106.457.457 0 01-.143.091c-.019 0-.07.03-.115.065a8.17 8.17 0 00-.523.454c-.026.03-.129.12-.228.202a2.56 2.56 0 00-.226.2.664.664 0 01-.107.097c-.198.138-.242.688-.117 1.455.073.451.107.52.375.762.094.085.215.2.268.256.054.056.152.15.219.21s.165.17.218.243c.318.434.692.763.974.855.093.03.294.104.448.162.153.058.354.13.446.16.092.029.23.076.307.104l.335.121c.108.04.278.102.377.14l.587.218c.88.327.811.31 1.292.331.242.011.506.034.586.05.08.015.303.04.495.054.192.014.512.039.711.056.99.083 1.223.099 1.48.1.397.003 1.17-.036 1.368-.069.418-.068.75-.115 1.033-.147.17-.018.433-.052.586-.075.154-.023.405-.054.559-.07.698-.075.677-.07 1.2-.289.277-.115.534-.224.572-.24.039-.017.165-.067.28-.11.424-.163.574-.224.661-.271a.415.415 0 01.123-.049.91.91 0 00.19-.083c.086-.045.202-.091.258-.102a.641.641 0 00.205-.093c.056-.04.167-.106.247-.148.23-.12.464-.306.676-.538.108-.118.291-.3.407-.403a4.89 4.89 0 00.632-.732c.081-.119.08-.253-.005-.572a6.511 6.511 0 01-.17-.888 1.4 1.4 0 00-.058-.277c-.035-.092-.038-.094-.024-.019.01.048.027.258.04.466.022.38.046.518.143.845.079.265.07.378-.038.506-.05.06-.11.14-.132.178-.096.162-.566.592-.706.647-.026.01-.048.03-.048.045s-.025.034-.056.042c-.03.008-.056.034-.056.057s-.031.056-.07.075c-.1.047-.092-.017.014-.121.046-.046.084-.101.084-.124 0-.023.066-.12.146-.214.302-.355.347-.456.184-.407a.348.348 0 00-.117.056c-.093.097-.204-.014-.167-.166.03-.125-.074-.073-.273.137a1.725 1.725 0 01-.213.204c-.01 0-.07.057-.131.127a.966.966 0 01-.21.179 1.22 1.22 0 00-.165.105.236.236 0 01-.107.054c-.023 0-.073.027-.112.059a.256.256 0 01-.111.058c-.022 0-.077.038-.122.085a.42.42 0 01-.172.105.443.443 0 00-.154.072.448.448 0 01-.166.072.484.484 0 00-.16.061.217.217 0 01-.102.041.408.408 0 00-.15.074.765.765 0 01-.247.102.493.493 0 00-.195.079c-.04.037-.102.05-.232.05-.122 0-.179.012-.179.036 0 .08-.384.161-.458.097a.09.09 0 00-.085-.012c-.033.013-.038.025-.015.04.044.028-.096.131-.214.158-.105.023-.295-.008-.273-.045.02-.033-.185-.033-.235 0-.023.015-.03.048-.02.083.015.051 0 .059-.15.075-.093.01-.214.039-.27.063a.545.545 0 01-.173.044c-.04 0-.144.015-.232.034-.13.028-.168.028-.205-.004-.07-.06-.014-.09.188-.1.128-.005.198-.023.231-.058.053-.055-.249-.042-.355.015a.475.475 0 01-.168.026c-.066 0-.24.02-.386.046-.145.025-.397.05-.558.055-.356.011-1.225.067-1.493.096l-.196.022.222.023c.265.028.287.038.212.105-.11.1-.556.109-.744.016-.154-.076-.156-.076-.303-.028-.113.037-.162.041-.205.017-.037-.02-.28-.033-.667-.034a7.787 7.787 0 01-.734-.026c-.278-.053-.47-.093-.646-.134a1.764 1.764 0 00-.314-.042.737.737 0 01-.233-.043 1.667 1.667 0 00-.336-.07c-.127-.014-.248-.041-.27-.06a.78.78 0 00-.249-.057.835.835 0 01-.303-.084.996.996 0 00-.274-.095c-.1-.02-.225-.06-.278-.09a.445.445 0 00-.173-.054.574.574 0 01-.207-.072.608.608 0 00-.177-.073.234.234 0 01-.107-.045 1.155 1.155 0 00-.22-.102 1.07 1.07 0 01-.189-.082.36.36 0 00-.1-.047c-.068-.02-.162-.078-.413-.252a.495.495 0 00-.16-.083c-.024 0-.064-.026-.09-.058-.026-.032-.062-.059-.078-.059-.034 0-.317-.211-.362-.27a1.458 1.458 0 00-.17-.143c-.146-.111-.537-.539-.581-.636-.037-.081-.064-.07-.1.042-.058.186-.313.162-.407-.039-.116-.246-.206-1.046-.156-1.381.035-.235.13-.358.459-.59.104-.073.217-.17.251-.215.072-.095.26-.232.283-.208.009.01.016.07.016.135v.119l.122-.145c.138-.164.62-.61.753-.697a.997.997 0 00.124-.094.488.488 0 01.084-.064c.078-.046.026-.06-.056-.015zm14.133.139c0 .006.072.067.16.135.088.068.208.171.266.229.085.084.111.097.13.063.033-.054.21.025.392.175.07.058.202.155.294.217a3.1 3.1 0 01.265.201c.067.063.08.068.041.02-.147-.186-.987-.789-1.099-.79a.34.34 0 01-.156-.057l-.189-.131c-.057-.04-.105-.069-.105-.062zm-14.657.278c0 .05-.05.06-.084.016-.03-.036-.025-.043.024-.043.033 0 .06.012.06.027zm10.287.002c.01.017-.016.03-.06.029-.062 0-.07-.007-.037-.029.053-.036.076-.036.097 0zm1.103.021a4.4 4.4 0 00-.353.143.535.535 0 01-.108.04c-.011 0-.116.043-.233.097a9.92 9.92 0 01-.409.173c-.107.042-.374.149-.592.238a8.003 8.003 0 01-.414.16.553.553 0 00-.106.042 11.1 11.1 0 01-.865.35c-.135.051-.255.107-.265.125-.01.017-.07.04-.13.052a.422.422 0 00-.154.057.808.808 0 01-.341.147.826.826 0 00-.217.075.431.431 0 01-.14.055.429.429 0 00-.14.054.889.889 0 01-.194.077 2.41 2.41 0 00-.293.105 1.396 1.396 0 01-.233.084c-.02 0-.09.025-.154.055s-.16.064-.215.075a.55.55 0 00-.153.058 1.72 1.72 0 01-.251.104 1.9 1.9 0 00-.252.103.6.6 0 01-.167.055.424.424 0 00-.143.047c-.03.027-.254.114-.471.184-.062.02-.15.053-.196.073a.996.996 0 01-.167.052.37.37 0 00-.112.038 2.18 2.18 0 01-.258.1c-.293.1-.301.148-.05.286.215.117.588.227.868.255.14.014.288.039.33.056.099.039.23.035.35-.01.127-.048.083-.073-.18-.104-.124-.014-.232-.044-.26-.07-.03-.028-.139-.057-.271-.072a.953.953 0 01-.501-.19c-.07-.054-.055-.07.1-.104.206-.045.434-.116.518-.162a.36.36 0 01.117-.043c.02 0 .126-.041.234-.09.207-.095.424-.178.636-.243.07-.022.163-.06.21-.086a.368.368 0 01.13-.047.756.756 0 00.2-.084c.084-.047.195-.094.247-.106a3.14 3.14 0 00.59-.248.357.357 0 01.135-.057.778.778 0 00.205-.087.754.754 0 01.22-.088.54.54 0 00.171-.057.545.545 0 01.165-.058.93.93 0 00.23-.088.998.998 0 01.22-.087c.023 0 .114-.026.201-.058a.955.955 0 01.231-.059c.04 0 .118-.024.175-.054a.876.876 0 01.23-.075c.07-.011.18-.045.245-.076a.589.589 0 01.18-.056c.068 0 .153-.043.245-.12.032-.028.138-.057.251-.069a.65.65 0 00.237-.058.507.507 0 01.197-.057.628.628 0 00.28-.105.406.406 0 01.236-.086c.061 0 .16-.026.217-.059.09-.05.149-.058.39-.05l.286.007.008-.073c.014-.13-.365-.424-.497-.386zm-1.371.093c.026.017-.005.029-.093.036-.137.011-.205-.02-.093-.042.109-.022.146-.02.186.006zm1.455.04c0 .056-.06.108-.121.108a.376.376 0 00-.149.061c-.1.065-.428.114-.428.064 0-.03.202-.13.37-.184a.312.312 0 00.12-.06c.025-.042.208-.032.208.011zm-1.703.079c0 .016-.041.029-.09.029-.07 0-.082-.008-.05-.03.055-.036.14-.036.14 0zm.965.23c-.019.031-.184.058-.235.038-.03-.012-.03-.018 0-.039.05-.033.255-.033.235 0zm-2.193.062c.04.068.002.086-.184.086-.18 0-.195-.01-.161-.103.022-.06.307-.047.345.017zm-1.285.61c0 .037.113.037.168 0 .03-.021.015-.028-.063-.029-.058 0-.105.013-.105.029zm-9.225.095c-.112.127-.233 1.487-.152 1.7.018.045.03.138.027.207-.006.159.11.404.26.553.06.059.141.144.181.19.04.046.199.218.352.381l.488.523c.348.377.821.64 1.564.874.31.097 1.712.604 1.927.696.228.098.388.146.93.28.154.037.48.076.866.104 1.124.08 1.287.096 1.4.126.062.017.22.03.351.03.132.001.364.02.517.043.92.139 2.19.102 2.999-.087.1-.023.247-.042.327-.042.132 0 .609-.08 1.11-.188.108-.023.34-.062.517-.087.712-.098.883-.15 1.508-.451.161-.078.33-.15.377-.16.046-.01.146-.05.223-.086.077-.037.435-.188.796-.336.893-.365 1.207-.528 1.374-.713.427-.473.614-.69.734-.845.074-.096.19-.22.257-.274a.728.728 0 00.163-.18 1.55 1.55 0 01.155-.219c.13-.155.141-.349.04-.65a17.056 17.056 0 01-.158-.539 3.755 3.755 0 00-.171-.509 1.197 1.197 0 01-.09-.211c-.049-.17-.148-.09-.102.082.017.063.03.162.03.22.001.057.03.247.067.421.165.796.17.724-.076 1.039a1.108 1.108 0 00-.142.22c-.01.034-.029.062-.04.062-.013 0-.037.034-.056.076-.032.075-.25.358-.52.677-.441.522-.493.575-.634.65a6.368 6.368 0 01-.6.285c-.012 0-.06.02-.106.046a3.541 3.541 0 01-.293.129c-.115.045-.31.123-.433.174-.122.05-.254.102-.293.116-.038.013-.264.105-.502.203-.753.31-1.03.388-1.703.477-.961.128-1.284.165-1.424.166-.085 0-.298.02-.475.042-.176.024-.497.063-.712.087l-.697.08c-.241.029-.422.029-.838.001l-1.033-.065c-.276-.017-.653-.05-.838-.074a15.708 15.708 0 00-.795-.072 9.245 9.245 0 01-.712-.07 8.523 8.523 0 00-.447-.062 2.648 2.648 0 01-.516-.136l-.908-.33a51.204 51.204 0 01-.781-.29 13.495 13.495 0 00-.922-.335c-.432-.137-.59-.233-.918-.555a3.762 3.762 0 00-.289-.264c-.074-.051-.454-.49-.454-.525a.449.449 0 00-.118-.107c-.312-.228-.675-.67-.58-.708.07-.027.193-1.533.146-1.789-.016-.083-.085-.084-.158-.001zm.033.668c-.006.068-.011.02-.011-.109 0-.128.005-.184.01-.124.007.06.007.164 0 .233zM17.055 5.9a.164.164 0 00-.035.1c0 .136-.406.68-.507.68a.51.51 0 00-.127.103c-.056.056-.126.102-.154.102-.029 0-.08.03-.113.068a.338.338 0 01-.157.087c-.132.027-.45.216-.45.268 0 .059.355.06.418.001.024-.023.205-.132.402-.242.576-.323.912-.71.912-1.05 0-.115-.12-.188-.19-.116zM1.91 6.346l-.026.327c-.006.058 0 .083.017.066.029-.03.059-.474.039-.568-.007-.032-.02.047-.03.175zm13.48.51a.5.5 0 01-.17.058c-.091 0-.163.098-.14.191.013.059.002.095-.044.147-.053.058-.055.069-.015.069.03 0 .046.024.046.073 0 .046-.015.072-.043.072-.09 0-.173.065-.112.087.074.027.183.002.183-.043 0-.024.064-.044.183-.057.233-.026.23-.087-.004-.088-.159 0-.165-.003-.174-.08-.008-.073 0-.08.084-.08.074 0 .106-.02.159-.102.037-.056.088-.102.114-.102.066 0 .151-.104.131-.159-.021-.058-.064-.055-.198.015zm1.532.298c-.187.185-.212.26-.098.291.105.029.414-.204.5-.377.1-.197-.176-.138-.402.086zM6.337 7.13a.92.92 0 01.182.156c.123.135.207.165.252.09.04-.067-.07-.157-.227-.188-.06-.012-.103-.037-.103-.06 0-.027-.032-.04-.091-.04h-.09l.077.042zm7.362.25a.596.596 0 01-.272.055c-.153.001-.175.008-.175.057 0 .03-.015.063-.034.07-.032.014.078.031.168.027.028 0 .028.008.004.04-.027.033-.018.034.055.008a.231.231 0 01.175 0c.142.052.175.04.226-.084.095-.23.05-.282-.147-.173zm7.969-.014c.049.05-.015.184-.09.186-.019 0-.064.07-.1.155-.068.16-.18.264-.253.235-.095-.038.085-.39.198-.39.02 0 .038-.01.038-.021 0-.124.14-.235.207-.165zm-13.564.112c.06.062.048.097-.028.082-.075-.015-.122-.124-.053-.124.022 0 .059.02.08.042zm-1.708.012c.011.02.098.076.193.126s.21.12.256.155c.115.089.687.303 1.424.533.325.102 1.223.268 1.424.263l.112-.002-.098-.026a5.6 5.6 0 00-.387-.07 2.412 2.412 0 01-.316-.061 1.591 1.591 0 00-.24-.055A7.638 7.638 0 017.71 8.08l-.21-.085a1.012 1.012 0 00-.19-.062c-.083 0-.388-.16-.452-.236a.57.57 0 00-.223-.138 4.234 4.234 0 01-.207-.078c-.038-.017-.048-.014-.033.011zm7.96.181c-.153.018-.234.04-.257.073-.028.04-.084.046-.383.037-.332-.01-.351-.007-.407.055-.069.077-.095.08-.922.067-.607-.008-.635-.012-.584-.076.04-.05.144-.053.267-.007.072.027.106.027.16-.003a.36.36 0 01.203-.021c.074.009.223.005.33-.008.153-.018.17-.024.078-.027-.085-.003-.119-.017-.119-.048 0-.025-.025-.044-.057-.044a.521.521 0 00-.157.044c-.119.052-.205.056-.205.01 0-.022-.036-.026-.118-.01-.107.02-.225.024-.461.013-.114-.006-.252.014-.275.038-.011.012.007.021.04.021.04 0 .06.018.06.053 0 .053-.238.145-.335.129a5.318 5.318 0 00-.25-.022 17.04 17.04 0 01-.353-.029c-.183-.018-.25.041-.148.127.054.046.13.058.47.071.253.01.46.034.544.062.16.054.81.064.966.016a2.84 2.84 0 01.46-.04c.385-.012.594-.038.647-.08a.868.868 0 01.237-.051c.113-.014.237-.039.275-.056.119-.052.454-.145.593-.165.135-.018.15-.03.11-.094-.032-.053-.158-.063-.41-.035zm1.413.234c-.094.105-.082.21.017.157a2.38 2.38 0 01.3-.11l.224-.068h-.168a1.253 1.253 0 01-.24-.024c-.058-.017-.087-.007-.133.045zm6.075.057a.12.12 0 00-.049.094c0 .043-.026.077-.08.101-.093.043-.304.248-.375.364a.294.294 0 01-.112.106.331.331 0 00-.117.103c-.03.042-.097.126-.147.185a8.32 8.32 0 00-.18.223c-.177.237-.658.594-.803.596a.38.38 0 00-.126.048 1.224 1.224 0 01-.223.085c-.223.06-.506.178-.951.394a.83.83 0 01-.13.056c-.01 0-.11.046-.226.101a1.356 1.356 0 01-.246.102c-.021 0-.202.061-.401.135-.82.304-.865.315-1.69.418a2.87 2.87 0 00-.354.062c-.09.03-.343.065-.804.112a10.24 10.24 0 00-.799.113 5.482 5.482 0 01-.46.05 2.14 2.14 0 00-.374.048c-.207.084-.87.103-1.703.051-.223-.014-.631-.04-.908-.056-1.09-.067-1.401-.092-1.535-.126a1.784 1.784 0 00-.377-.028c-.13.003-.35-.012-.489-.035a6.723 6.723 0 00-.484-.059 1.142 1.142 0 01-.307-.056.83.83 0 00-.211-.06.613.613 0 01-.196-.06c-.076-.052-.394-.089-.417-.049-.01.017.02.039.07.05.048.011.147.052.22.09a.68.68 0 00.173.07c.023 0 .12.055.218.123l.176.124.38.002c.21 0 .403.015.434.033.034.019.396.036.936.046.963.016 1.116.04 1.226.184l.056.075.146-.05c.137-.048.162-.048.399-.004.139.026.336.044.438.04.2-.007.318.07.292.19-.01.041.007.051.082.051s.091-.01.078-.046c-.029-.077.046-.098.343-.099.155 0 .349-.013.43-.03.202-.04.25-.02.25.103 0 .117.028.14.124.102.06-.024.072-.047.072-.142 0-.127.033-.148.237-.15a1.5 1.5 0 00.275-.04.894.894 0 01.268-.026.42.42 0 00.236-.046c.095-.044.237-.068.525-.09.217-.018.46-.052.54-.076.08-.024.325-.055.546-.069a5.814 5.814 0 001.554-.338c.1-.04.22-.071.269-.071a.406.406 0 00.19-.073.412.412 0 01.142-.073.47.47 0 00.158-.09c.112-.084.238-.138.574-.249.076-.025.208-.082.293-.126.084-.044.197-.09.251-.101.09-.02.244-.093.642-.306.213-.114.49-.184.563-.144.043.025.063.022.089-.012l.199-.272a4.41 4.41 0 01.237-.301c.04-.04.108-.133.155-.204.046-.071.093-.137.105-.146.145-.112.57-.563.613-.653a.521.521 0 01.11-.154c.097-.072.062-.181-.04-.12zm1.057.175c-.043.29-.65.72-.77.733.38.128.89-.024.92-.659-.067-.157-.13-.21-.15-.074zm-18.273.454l.163.111c.024.016.107.074.184.13.077.054.183.115.236.134l.096.035-.151.01a.42.42 0 01-.236-.036 1.072 1.072 0 00-.15-.068.34.34 0 01-.114-.07 10.437 10.437 0 00-.13-.126c-.238-.227-.17-.308.102-.12zm5.22-.008c.007.006.15.02.32.03.168.01.35.023.404.03.07.01.058.001-.041-.027-.123-.035-.713-.064-.682-.033zm6.699.308c0 .037.168.037.223 0 .03-.02.005-.028-.09-.029-.073 0-.133.013-.133.03zm-11 .179c.076.028.083.037.044.06-.066.038-.267-.001-.267-.052 0-.05.097-.054.222-.008zm12.938.021c.021.036-.074.058-.169.04-.07-.015-.072-.019-.023-.039.076-.031.174-.031.192 0zM3.872 9.14c.02.024.052.044.072.044.02 0 .047.018.06.04.054.095.403.26.678.32.116.024.453.151.573.215.063.033.163.07.224.08a.69.69 0 01.194.073c.046.028.124.06.172.07.05.012.104.04.122.062a.123.123 0 00.084.042c.028 0 .059.013.069.03.029.048-.163.032-.35-.03a1.491 1.491 0 00-.205-.058.961.961 0 01-.17-.055 5.076 5.076 0 00-.253-.091c-.12-.039-.494-.182-.662-.254a.505.505 0 01-.15-.099.167.167 0 00-.108-.054c-.034 0-.117-.052-.185-.116a.532.532 0 00-.158-.116c-.02 0-.035-.026-.035-.057 0-.035-.023-.06-.063-.069-.06-.012-.06-.013-.003-.016a.124.124 0 01.094.04zm2.07.1c-.035.022-.144.01-.144-.016 0-.006.041-.01.091-.01.062 0 .079.008.053.025zm-5.204.144c-.024.096.174.295.294.295.02 0 .086.026.147.059.196.104.318.126.379.069.082-.078.067-.15-.038-.174a1.41 1.41 0 01-.23-.087 1.168 1.168 0 00-.196-.077c-.037-.007-.055-.032-.053-.075.003-.09-.28-.1-.303-.01zm16.86.067c-.056.022-.088.021-.11-.002-.023-.024-.002-.032.08-.03.108.002.109.003.03.032zm-10.627.111c0 .037-.085.037-.14 0-.031-.021-.02-.028.05-.028.05 0 .09.012.09.028zm3.387.029c.135.06 1.017.076 1.07.02.01-.01-.024-.02-.076-.023l-.347-.01c-.138-.003-.37-.015-.516-.026l-.266-.02.135.059zm6.438.196a.416.416 0 01-.126.007l-.137-.002.084-.038c.06-.028.095-.03.125-.007l.054.04zm-8.997.01c.136.034.27.075.3.092.079.043.85.107 2.39.197.268.016.658.042.865.058.207.016.459.03.559.03.244 0 .379.068.37.186-.008.118-.068.17-.194.169a17.89 17.89 0 01-1.181-.093c-.727-.098-.956-.124-1.145-.13a11.775 11.775 0 01-.573-.042c-.2-.019-.47-.035-.6-.035-.27-.001-.422-.043-.742-.204a1.668 1.668 0 00-.257-.114c-.017 0-.045-.026-.062-.058-.016-.032-.054-.058-.084-.058-.03 0-.055-.013-.055-.03 0-.045.141-.034.41.033zm8.734.04c.046.023.07.042.053.043a.547.547 0 00-.139.078c-.147.105-.517.175-1.027.196-.228.01-.43.03-.449.047-.018.016-.151.043-.296.06s-.401.051-.57.076l-.462.068a8.874 8.874 0 00-.349.06c-.456.088-.689-.157-.334-.353.112-.062.127-.064.276-.027.137.034.18.033.349-.009.106-.026.263-.048.35-.048.087 0 .242-.013.345-.029.103-.016.438-.048.745-.072.78-.061 1.252-.104 1.285-.117.056-.022.142-.011.223.028zm-10.095.384c.007.006.005.018-.004.027-.024.025-.274-.02-.258-.046.012-.021.236-.005.262.019zm6.228.039c.081.158-.083.284-.177.135-.046-.074-.021-.14.066-.172.07-.027.08-.023.111.037zm-6.037.079a.218.218 0 01-.098 0c-.027-.007-.005-.013.05-.013.053 0 .075.006.048.013zm.477.129c.005.013.055.032.111.042.057.01.14.043.187.07a.738.738 0 00.244.072c.088.011.166.031.175.045.008.014.13.025.272.025.142 0 .459.021.705.048.431.046.7.071 1.382.131.176.015.729.048 1.228.072.956.046.935.047 1.745-.074.092-.014.324-.04.516-.056.192-.017.431-.043.53-.059.235-.036 1.336-.094 1.37-.072.077.05-.143.189-.297.189-.037 0-.198.032-.357.07-.159.04-.357.08-.44.089-.082.01-.32.042-.527.073-.721.108-.854.121-1.428.137-.416.012-.614.007-.712-.02a3.267 3.267 0 00-.414-.062 6.407 6.407 0 01-.433-.054c-.2-.037-.676-.085-1.13-.115a3.9 3.9 0 01-.42-.043c-.03-.01-.313-.03-.627-.045-.459-.022-.603-.039-.726-.086a.922.922 0 00-.241-.06.425.425 0 01-.168-.044.402.402 0 00-.158-.044 1.07 1.07 0 01-.41-.162.389.389 0 00-.137-.056c-.065-.015-.083-.028-.057-.045.042-.027.203-.002.217.034zm-.065 1.102c.01.016.054.029.1.029.044 0 .081-.013.081-.03 0-.015-.044-.028-.1-.028-.058 0-.091.012-.081.029zm.523.063c-.081.084.067.141.2.078.066-.031.068-.037.023-.072-.06-.048-.18-.051-.223-.006zm2.358.13c-.029.03.007.069.063.069.029 0 .057.014.062.031.006.017.054.027.107.022l.097-.01-.1-.065c-.1-.064-.194-.084-.23-.047zm.393.08c-.027.02-.04.047-.03.057.026.027.315.023.315-.004 0-.09-.194-.125-.285-.053zm.97.045c-.02.034.086.07.128.044.022-.014.02-.028-.007-.045-.05-.033-.1-.033-.12 0zm-4.555.46c-.005 1.823.22 3.514.331 5.233.035.538.256.573.37.06.302-1.352.453-3.595.016-5.017-.18-.586.373-.251.523-.295-.164-.189-.484-.126-.642-.189a1.554 1.554 0 00-.597-.134v.342zm8.826.559c-2.136.83-3.99.413-5.65.054-.13.253.997.927 1.925 1.15 1.076.26 2.708.12 3.553-.753.407-.421.52-.543.172-.451zM3.708 18.951c.021.029.073.088.115.134.042.045.077.098.077.118 0 .039.304.367.34.367.013 0 .023.014.023.033 0 .02-.032.026-.09.015l-.091-.018.072.042c.04.023.235.108.433.19l.569.238c.115.048.24.094.278.101a.274.274 0 01.108.047.188.188 0 00.077.039c.088.013.453.14.548.19a.49.49 0 00.182.054c.043 0 .125.033.181.072.057.04.12.073.139.073.032 0 .209.067.428.162.046.02.14.045.209.056.07.011.18.039.245.061a.96.96 0 00.26.041c.077 0 .23.019.34.041.285.058.407.075.788.107.184.016.41.041.503.056.092.015.33.042.53.06.2.016.464.043.586.057.123.015.431.04.684.056.254.016.492.038.53.048.08.021 1.087.017 1.121-.005.012-.008.214-.026.449-.041.235-.015.49-.04.567-.056.076-.016.252-.036.39-.045a6.55 6.55 0 00.433-.043l.391-.058.405-.06c.47-.07.88-.126 1.075-.146.167-.018.143-.02-.126-.01a5.814 5.814 0 00-.67.07c-.184.032-.43.064-.544.071-.426.024-.63.05-.713.088-.07.033-.458.042-.662.017-.048-.006-.016-.065.049-.09.12-.048.078-.058-.243-.058-.283 0-.389.035-.19.063.056.008.068.024.062.081-.013.12-.05.135-.196.082-.254-.094-.926-.075-1.29.035a.449.449 0 01-.242-.004 2.694 2.694 0 00-.549-.019c-.307.011-.426.005-.496-.026-.058-.025-.245-.046-.498-.055a4.91 4.91 0 01-.602-.054 5.206 5.206 0 00-.828-.104.962.962 0 01-.275-.043.753.753 0 00-.21-.044c-.163 0-.739-.159-.739-.204 0-.014-.047-.035-.105-.046a1.427 1.427 0 01-.304-.129 1.58 1.58 0 00-.293-.13 1.552 1.552 0 01-.261-.102 1.707 1.707 0 00-.251-.103.711.711 0 01-.168-.072 1.587 1.587 0 00-.28-.11 5.175 5.175 0 01-.306-.105.678.678 0 00-.16-.045.482.482 0 01-.154-.06.467.467 0 00-.144-.058.158.158 0 01-.084-.038.593.593 0 00-.17-.076c-.158-.047-.586-.258-.586-.289 0-.013-.035-.042-.077-.064a3.74 3.74 0 01-.201-.122.512.512 0 00-.175-.08c-.027 0-.05-.02-.05-.043 0-.025-.025-.044-.056-.044-.037 0-.056-.02-.056-.058 0-.035-.018-.058-.045-.058-.039 0-.04.006-.007.05zm16.506.662a.497.497 0 01-.173.061c-.063.01-.109.03-.101.042.007.013-.025.04-.07.062-.047.021-.085.046-.085.055 0 .008-.04.018-.09.022a.784.784 0 00-.37.109.7.7 0 01-.173.071c-.02 0-.037.013-.037.03 0 .046.048.034.208-.055.166-.093.49-.141.49-.073 0 .02-.022.041-.049.048-.026.006-.001.011.056.01.058 0 .105-.01.105-.024 0-.012-.014-.02-.032-.016-.017.004-.037-.009-.044-.029-.007-.02.01-.036.039-.037.032 0 .04-.008.02-.021-.024-.016-.023-.03.003-.056.043-.042.166.034.136.084-.012.02-.006.023.015.01.025-.016.025-.031 0-.062-.018-.023-.021-.042-.008-.042.014 0 .006-.013-.017-.029-.036-.023-.035-.028.008-.028.028 0 .043-.014.033-.03-.009-.016.004-.029.029-.029.033 0 .04.016.026.062-.013.044-.008.058.02.048.02-.007.041-.041.046-.076.005-.034.027-.063.049-.063.022 0 .04-.02.04-.044 0-.053-.002-.053-.074 0zm-15.407.16c.109.043.057.098-.075.079-.125-.017-.148-.032-.121-.077.023-.038.101-.04.196-.002zm.501.203c.11.044.095.12-.02.098-.107-.02-.145-.05-.12-.094.024-.04.048-.04.14-.004zm13.514.208l-.111.058.096-.02a.31.31 0 00.134-.06c.052-.053.016-.046-.119.022zm-.251.115c-.086.057-.076.069.033.038.033-.009.068-.035.076-.057.02-.054-.007-.049-.11.02zm-.265.103c-.039.025-.047.037-.019.028a.409.409 0 01.105-.017c.03 0 .053-.013.053-.029 0-.041-.058-.034-.14.018zm-.208.085c-.05.039-.05.043-.005.043a.15.15 0 00.091-.044c.057-.059-.011-.058-.086.001zm-.574.232c-.054.022-.079.04-.056.04s.08-.017.126-.039c.108-.051.057-.052-.07-.001z" fill="#687891"/>
  <path d="M21.308 10.004c-.324 1.155-.833 1.913-3.19 2.241.328.322 1.127.307 1.553.299h.003c1.564-.135 1.93-1.369 2.067-1.832-.02-.035-.17-1.098-.433-.708z" fill="#687891"/>
</svg>
