<svg width="128" height="128" fill="none" xmlns="http://www.w3.org/2000/svg">
  <path stroke="#2B333B" d="M.5 96.5h31v31H.5zm0-32h31v31H.5zm32 32h31v31h-31zm0-32h31v31h-31zm-32-32h31v31H.5zm0-32h31v31H.5zm32 32h31v31h-31zm0-32h31v31h-31zm32 96h31v31h-31zm0-32h31v31h-31zm32 32h31v31h-31zm0-32h31v31h-31zm-32-32h31v31h-31zm0-32h31v31h-31zm32 32h31v31h-31zm0-32h31v31h-31z"/>
  <path stroke="#364049" d="M.5 64.5h63v63H.5zm0-64h63v63H.5zm64 64h63v63h-63zm0-64h63v63h-63z"/>
  <path stroke="#414D58" d="M.5.5h127v127H.5z"/>
</svg>
