<svg width="128" height="128" fill="none" xmlns="http://www.w3.org/2000/svg">
  <g clip-path="url(#clip0)">
    <path fill-rule="evenodd" clip-rule="evenodd" d="M58.139 117.33h-21.89l-3.495-3.105v-8.64l-5.19-5.017H18.43l-4.903-4.737V75.857h12.474V65.476l-1.803-1.742h-7.21l-3.316-3.205V39.605H27.54l4.811-4.65v-8.628l1.656-1.6H92.97l2.555 1.426v8.211l5.439 5.255h13.504v59.45H99.214v3.432l-3.45 3.333v8.113l-3.636 3.514H69.763v6.766l-1.496 1.446h-8.429l-1.7-1.643v-6.7zm-.53-58.194h12.118l4.914 4.784v11.752l-4.938 4.807h-12.19l-4.377-4.262V63.595l4.473-4.46zm42.651 15.142V66.01l1.717-1.672h6.87l1.765 1.719v8.314l-1.598 1.556h-7.132l-1.622-1.649z" fill="#576675"/>
    <path d="M36.25 117.33l-.664.748.284.252h.38v-1zm21.889 0h1v-1h-1v1zm-25.385-3.105h-1v.449l.336.298.664-.747zm0-8.64h1v-.424l-.305-.295-.695.719zm-5.19-5.017l.694-.719-.29-.28h-.405v.999zm-9.134 0l-.695.72.291.28h.404v-1zm-4.903-4.737h-1v.424l.306.295.694-.72zm0-19.974v-1h-1v1h1zm12.474 0v1h1v-1h-1zm0-10.381h1v-.424l-.305-.295-.695.719zm-1.803-1.742l.695-.719-.29-.28h-.405v1zm-7.21 0l-.695.72.291.28h.404v-1zm-3.316-3.205h-1v.424l.305.295.695-.719zm0-20.924v-1h-1v1h1zm13.868 0v1h.404l.291-.281-.695-.72zm4.811-4.65l.695.72.305-.295v-.425h-1zm0-8.628l-.695-.72-.305.296v.424h1zm1.656-1.6v-1h-.405l-.29.281.695.72zm58.964 0l.487-.873-.227-.127h-.26v1zm2.555 1.426h1v-.587l-.512-.286-.488.873zm0 8.211h-1v.425l.306.294.694-.719zm5.439 5.255l-.695.72.29.28h.405v-1zm13.504 0h1v-1h-1v1zm0 59.45v.999h1v-1h-1zm-15.255 0v-1h-1v1h1zm0 3.432l.695.719.305-.295v-.424h-1zm-3.45 3.333l-.695-.719-.305.295v.424h1zm0 8.113l.695.719.305-.295v-.424h-1zm-3.636 3.514v1h.404l.29-.281-.695-.719zm-22.365 0v-1h-1v1h1zm0 6.766l.695.719.305-.294v-.425h-1zm-1.496 1.446v1h.405l.29-.281-.695-.719zm-8.429 0l-.695.719.29.281h.405v-1zm-1.7-1.643h-1v.425l.306.294.695-.719zm11.589-64.894l.697-.717-.29-.283h-.407v1zm-12.118 0v-1h-.413l-.293.291.706.709zm17.032 4.784h1v-.422l-.303-.295-.697.717zm0 11.752l.697.716.303-.294v-.422h-1zm-4.938 4.807v1h.406l.292-.283-.698-.717zm-12.19 0l-.697.717.291.283h.407v-1zm-4.377-4.262h-1v.422l.303.295.697-.717zm0-12.622l-.706-.708-.294.293v.415h1zm47.124 2.415l-.698-.716-.302.294v.422h1zm0 8.268h-1v.41l.287.291.713-.7zm1.717-9.94v-1h-.406l-.291.283.697.717zm6.87 0l.698-.716-.292-.284h-.406v1zm1.765 1.719h1v-.422l-.302-.295-.698.717zm0 8.314l.698.717.302-.295v-.422h-1zm-1.598 1.556v1h.406l.292-.283-.698-.717zm-7.132 0l-.713.701.294.3h.419v-1zM36.25 118.33h21.889v-2h-21.89v2zm-4.16-3.358l3.496 3.106 1.328-1.496-3.495-3.105-1.329 1.495zm-.336-9.387v8.64h2v-8.64h-2zm-4.886-4.297l5.192 5.016 1.39-1.438-5.192-5.017-1.39 1.439zm-8.438.28h9.133v-2H18.43v2zm-5.598-5.018l4.903 4.738 1.39-1.439-4.903-4.737-1.39 1.438zm-.305-20.693v19.974h2V75.857h-2zm13.474-1H13.527v2h12.474v-2zm-1-9.381v10.381h2V65.476h-2zm-1.498-1.023l1.803 1.742 1.39-1.438-1.803-1.742-1.39 1.438zm-6.515.281h7.21v-2h-7.21v2zm-4.011-3.486l3.316 3.205 1.39-1.438-3.316-3.205-1.39 1.438zm-.305-21.643v20.924h2V39.605h-2zm14.868-1H13.672v2H27.54v-2zm4.116-4.369l-4.81 4.65 1.389 1.438 4.811-4.65-1.39-1.438zm-.305-7.909v8.628h2v-8.628h-2zm1.96-2.319l-1.655 1.6 1.39 1.438 1.656-1.6-1.39-1.438zm59.66-.28H34.007v2H92.97v-2zm3.043 1.552l-2.556-1.426-.974 1.747 2.555 1.425.975-1.746zm.512 9.084v-8.21h-2v8.21h2zm5.133 4.536l-5.438-5.255-1.39 1.438 5.439 5.256 1.389-1.439zm12.81-.28h-13.504v2h13.504v-2zm1 60.448V39.62h-2v59.45h2zm-16.255 1h15.255v-2H99.214v2zm1 2.433v-3.433h-2v3.433h2zm-3.755 4.052l3.45-3.333-1.39-1.438-3.45 3.333 1.39 1.438zm.305 7.394v-8.113h-2v8.113h2zm-3.942 4.233l3.637-3.514-1.39-1.438-3.636 3.514 1.39 1.438zm-23.06.281h22.365v-2H69.763v2zm1 5.766v-6.766h-2v6.766h2zm-1.8 2.165l1.496-1.446-1.39-1.438-1.496 1.445 1.39 1.439zm-9.124.281h8.43v-2h-8.43v2zm-2.394-1.924l1.7 1.643 1.389-1.439-1.7-1.642-1.39 1.438zm-.305-7.419v6.7h2v-6.7h-2zm12.588-59.194H57.609v2h12.118v-2zm5.611 5.067l-4.914-4.784-1.395 1.433 4.914 4.784 1.395-1.433zm.303 12.469V63.92h-2v11.752h2zm-5.24 5.524l4.937-4.808-1.395-1.433-4.938 4.808 1.396 1.433zm-12.887.283h12.189v-2h-12.19v2zm-5.075-4.545l4.377 4.262 1.395-1.433-4.377-4.262-1.395 1.433zm-.303-13.34v12.623h2V63.595h-2zm4.767-5.166l-4.472 4.459 1.412 1.416 4.472-4.46-1.412-1.416zM99.26 66.01v8.268h2V66.01h-2zm2.02-2.389l-1.718 1.673 1.395 1.433 1.718-1.673-1.395-1.433zm7.567-.283h-6.87v2h6.87v-2zm2.463 2.002l-1.765-1.719-1.396 1.433 1.766 1.72 1.395-1.434zm.302 9.031v-8.314h-2v8.314h2zm-1.9 2.273l1.598-1.556-1.395-1.433-1.599 1.556 1.396 1.433zm-7.83.283h7.132v-2h-7.132v2zm-2.335-1.948l1.622 1.65 1.426-1.403-1.622-1.65-1.426 1.403z" fill="#8A9AA8"/>
  </g>
  <defs>
    <clipPath id="clip0">
      <path d="M0 0h128v128H0V0z" fill="#fff"/>
    </clipPath>
  </defs>
</svg>
