<svg width="128" height="128" fill="none" xmlns="http://www.w3.org/2000/svg">
  <g clip-path="url(#clip0)">
    <path fill-rule="evenodd" clip-rule="evenodd" d="M72.169 125.624H56.154l-3.263-3.344v-12.019H41.387l-1.5 1.56v3.588l-4.82 5.014h-5.172l-4.765-4.957v-6.521H13.656l-3.573-3.716V63.383l2.186-2.274V4.274l1.824-1.898H114.43l1.82 1.894v57.279l1.666 1.733v42.395l-3.16 3.287h-11.302v6.397l-5.072 5.276h-4.83l-4.399-4.576v-3.399l-2.118-2.204H75.76v11.43l-3.591 3.736zM32.483 61.77H27.32l-8.063-8.798H15.68V8.11l1.954-2.03h92.634l2.287 2.375v44.853h-3.291l-8.067 8.381h-5.106l-9.719 10.096h-5.866l-3.284-3.412v-6.967l-4.715-4.898H55.945l-5.013 5.208v7.03l-3.273 3.4H42.47L32.483 61.77z" fill="#576675"/>
    <path d="M56.154 125.624l-.716.698.295.302h.42v-1zm16.015 0v1h.426l.295-.307-.721-.693zM52.89 122.28h-1v.407l.285.292.715-.699zm0-12.019h1v-1h-1v1zm-11.504 0v-1h-.426l-.295.307.721.693zm-1.5 1.56l-.72-.693-.28.29v.403h1zm0 3.588l.721.693.28-.29v-.403h-1zm-4.82 5.014v1h.426l.295-.307-.721-.693zm-5.172 0l-.72.693.294.307h.426v-1zm-4.765-4.957h-1v.403l.279.29.72-.693zm0-6.521h1v-1h-1v1zm-11.473 0l-.72.693.294.307h.426v-1zm-3.573-3.716h-1v.403l.28.29.72-.693zm0-41.846l-.72-.693-.28.29v.403h1zm2.186-2.274l.721.693.28-.29v-.403h-1zm0-56.835l-.72-.693-.28.29v.403h1zm1.824-1.898v-1h-.426l-.295.307.721.693zm100.336 0l.721-.693-.295-.307h-.426v1zm1.82 1.894h1v-.403l-.279-.29-.721.693zm0 57.279h-1v.403l.279.29.721-.693zm1.666 1.733h1v-.403l-.279-.29-.721.693zm0 42.395l.721.693.279-.29v-.403h-1zm-3.16 3.287v1h.426l.295-.307-.721-.693zm-11.302 0v-1h-1v1h1zm0 6.397l.721.693.279-.29v-.403h-1zm-5.072 5.276v1h.425l.296-.307-.721-.693zm-4.83 0l-.72.693.294.307h.426v-1zm-4.399-4.576h-1v.403l.28.29.72-.693zm0-3.399h1v-.403l-.279-.29-.72.693zm-2.118-2.204l.72-.693-.294-.307h-.426v1zm-11.275 0v-1h-1v1h1zm0 11.43l.72.693.28-.29v-.403h-1zM27.32 61.77l-.737.676.297.324h.44v-1zm5.163 0l.72-.693-.294-.307h-.426v1zm-13.226-8.798l.737-.675-.297-.325h-.44v1zm-3.577 0h-1v1h1v-1zm0-44.862l-.72-.693-.28.29v.403h1zm1.954-2.03v-1h-.425l-.295.307.72.693zm92.634 0l.721-.693-.295-.307h-.426v1zm2.287 2.375h1v-.403l-.28-.29-.72.693zm0 44.853v1h1v-1h-1zm-3.291 0v-1h-.425l-.295.307.72.693zm-8.067 8.381v1h.425l.295-.306-.72-.694zm-5.106 0v-1h-.426l-.295.307.72.693zm-9.719 10.096v1h.426l.295-.306-.72-.694zm-5.866 0l-.72.694.295.306h.425v-1zm-3.284-3.412h-1v.403l.28.29.72-.693zm0-6.967h1v-.403l-.28-.29-.72.693zm-4.715-4.898l.72-.694-.295-.306h-.425v1zm-16.562 0v-1h-.426l-.295.306.72.694zm-5.013 5.208l-.72-.694-.28.29v.404h1zm0 7.03l.72.693.28-.29v-.403h-1zm-3.273 3.4v1h.426l.295-.307-.72-.694zm-5.189 0l-.72.693.295.306h.425v-1zm13.684 54.478h16.015v-2H56.154v2zm-3.979-3.645l3.263 3.343 1.432-1.397-3.263-3.343-1.431 1.397zm-.284-12.718v12.019h2v-12.019h-2zm-10.504 1h11.504v-2H41.387v2zm-.779 1.253l1.5-1.56-1.442-1.386-1.5 1.56 1.442 1.386zm.28 2.895v-3.588h-2v3.588h2zm-5.1 5.707l4.82-5.014-1.442-1.386-4.82 5.014 1.442 1.386zm-5.893.307h5.172v-2h-5.172v2zm-5.486-5.264l4.765 4.957 1.442-1.386-4.766-4.957-1.442 1.386zm-.28-7.214v6.521h2v-6.521h-2zm-10.472 1H25.13v-2H13.656v2zm-4.293-4.023l3.572 3.716 1.442-1.386-3.573-3.716-1.441 1.386zm-.28-42.54v41.847h2V63.383h-2zm2.465-2.966L9.364 62.69l1.441 1.386 2.186-2.274-1.442-1.386zM11.27 4.274v56.835h2V4.274h-2zm2.103-2.59L11.55 3.58l1.442 1.386 1.824-1.898-1.442-1.386zm101.057-.308H14.094v2H114.43v-2zm2.541 2.2l-1.82-1.893-1.442 1.386 1.82 1.894 1.442-1.387zm.279 57.973V4.269h-2v57.28h2zm1.387 1.04l-1.666-1.733-1.442 1.386 1.666 1.733 1.442-1.386zm.279 43.088V63.282h-2v42.395h2zm-3.439 3.98l3.16-3.287-1.442-1.386-3.16 3.287 1.442 1.386zm-12.023.307h11.302v-2h-11.302v2zm1 5.397v-6.397h-2v6.397h2zm-5.351 5.969l5.072-5.276-1.442-1.386-5.072 5.276 1.442 1.386zm-5.55.307h4.829v-2h-4.83v2zm-5.12-4.883l4.398 4.576 1.442-1.386-4.399-4.576-1.441 1.386zm-.28-4.092v3.399h2v-3.399h-2zm-1.84-1.511l2.12 2.204 1.441-1.386-2.118-2.204-1.442 1.386zm-10.553.307h11.275v-2H75.76v2zm1 10.43v-11.43h-2v11.43h2zm-3.87 4.429l3.59-3.736-1.441-1.386-3.591 3.736 1.442 1.386zM27.32 62.77h5.163v-2H27.32v2zm-8.8-9.122l8.063 8.798 1.475-1.352-8.064-8.797-1.474 1.35zm-2.84.324h3.577v-2H15.68v2zm-1-45.862v44.862h2V8.11h-2zm2.234-2.723l-1.955 2.03 1.442 1.387 1.954-2.03-1.441-1.387zm93.354-.307H17.635v2h92.633v-2zm3.007 2.682l-2.286-2.375-1.441 1.387 2.286 2.375 1.441-1.387zm.28 45.546V8.455h-2v44.853h2zm-4.291 1h3.291v-2h-3.291v2zm-7.347 8.075l8.068-8.381-1.441-1.387-8.068 8.38 1.441 1.388zm-5.826.306h5.106v-2h-5.106v2zm-8.998 9.79l9.718-10.096-1.44-1.387-9.72 10.096 1.442 1.387zm-6.587.306h5.866v-2h-5.866v2zm-4.005-3.718l3.285 3.412 1.44-1.387-3.284-3.412-1.44 1.387zm-.28-7.66v6.966h2v-6.967h-2zM71.787 57.2l4.715 4.899 1.441-1.387-4.715-4.898-1.44 1.386zm-15.841.307h16.562v-2H55.945v2zm-4.293 4.901l5.013-5.208-1.44-1.386-5.014 5.208 1.441 1.386zm.28 6.337v-7.03h-2v7.03h2zm-3.552 4.093l3.272-3.4-1.44-1.387-3.273 3.4 1.44 1.387zm-5.91.306h5.19v-2h-5.19v2zM31.763 62.465L41.75 72.84l1.44-1.387-9.986-10.375-1.441 1.387z" fill="#8A9AA8"/>
  </g>
  <defs>
    <clipPath id="clip0">
      <path d="M0 0h128v128H0V0z" fill="#fff"/>
    </clipPath>
  </defs>
</svg>
