<svg width="128" height="256" fill="none" xmlns="http://www.w3.org/2000/svg">
  <path fill-rule="evenodd" clip-rule="evenodd" d="M89.215 181.977h27.976l2.835-3.315-.54-100.36-2.97-2.917-29.018.133-4.47 4.188-4.303.054-2.16-1.458-.056-5.022-3.993-2.018V55.897l4.589-3.061-.27-42.413-2.834-3.049h-1.89L68.544 3h-9.718l-3.451 4.242H53.62l-2.834 3.314v42.026l4.319 4.11.135 14.318-4.454 2.917v4.243l-1.35 1.723-5.312.03-4.676-4.538-28.344.266L8 78.965l.135 99.432 4.05 3.712 27.398-.265 4.59-4.773 4.588-.132 2.16 1.723v5.436l2.024 1.345 2.565 1.704.135 14.716-4.994 3.182-.135 41.629 3.374 3.181 2.945.067L58.884 254h10.528l1.913-4.145h2.81l3.498-2.916-.27-42.69-5.093-2.83-.147-14.229 5.117-3.49.135-5.17 1.754-1.326h4.86l5.226 4.773zm14.769-86.354l-.094 8.624h-15.9l-.094-4.968 3.46-3.562 12.628-.094zm-80.623.279v8.626h15.993l.094-4.968L36 95.902H23.36zm80.898 56.949l.093 8.625-12.627-.094-3.46-3.562.093-4.969h15.901zm-80.899 8.191l.093-8.624h15.901l.094 4.968-3.46 3.563-12.628.093z" fill="#576675"/>
  <path d="M117.191 181.977v1h.461l.299-.351-.76-.649zm-27.976 0l-.675.738.287.262h.388v-1zm30.811-3.315l.76.65.242-.283-.002-.372-1 .005zm-.54-100.36l1-.005-.003-.416-.297-.292-.7.713zm-2.97-2.917l.701-.713-.294-.288-.411.001.004 1zm-29.018.133l-.005-1-.392.002-.287.268.684.73zm-4.47 4.188l.012 1 .388-.005.283-.266-.684-.73zm-4.303.054l-.56.83.26.174.312-.004-.012-1zm-2.16-1.458l-1 .011.006.525.434.293.56-.829zm-.056-5.022l1-.01-.007-.608-.542-.274-.45.892zm-3.993-2.018h-1v.615l.549.278.45-.893zm0-15.365l-.555-.832-.445.297v.535h1zm4.589-3.061l.555.832.448-.3-.003-.538-1 .006zm-.27-42.413l1-.006-.002-.39-.266-.284-.732.68zm-2.834-3.049l.732-.68-.297-.32h-.435v1zm-1.89 0l-.775.632.3.368h.475v-1zM68.544 3l.775-.632-.3-.368h-.475v1zm-9.718 0V2h-.476l-.3.369.776.631zm-3.451 4.242v1h.475l.3-.37-.775-.63zm-1.755 0v-1h-.46l-.3.35.76.65zm-2.834 3.314l-.76-.65-.24.28v.37h1zm0 42.026h-1v.43l.31.295.69-.724zm4.319 4.11l1-.01-.004-.422-.307-.292-.69.724zm.135 14.318l.547.837.458-.3-.005-.546-1 .01zm-4.454 2.917l-.548-.836-.452.296v.54h1zm0 4.243l.787.616.213-.271v-.345h-1zm-1.35 1.723l.006 1 .483-.003.298-.38-.787-.617zm-5.312.03l-.696.718.293.285.41-.002-.007-1zm-4.676-4.538l.697-.717-.295-.286-.411.004.01 1zm-28.344.266l-.009-1-.428.004-.293.312.73.684zM8 78.965l-.73-.684-.27.29v.395h1zm.135 99.432l-1 .001v.439l.324.297.676-.737zm4.05 3.712l-.677.737.291.267.395-.004-.01-1zm27.398-.265l.01 1 .42-.004.291-.303-.72-.693zm4.59-4.773l-.03-.999-.408.011-.284.295.721.693zm4.588-.132l.624-.782-.286-.229-.367.011.03 1zm2.16 1.723h1v-.481l-.377-.3-.623.781zm0 5.436h-1v.536l.446.297.554-.833zm2.024 1.345l.554-.833-.554.833zm2.565 1.704l1-.009-.005-.53-.442-.294-.553.833zm.135 14.716l.537.843.468-.298-.005-.554-1 .009zm-4.994 3.182l-.538-.844-.46.294-.002.546 1 .004zm-.135 41.629l-1-.004-.002.434.316.297.686-.727zm3.374 3.181l-.686.728.28.263.383.009.023-1zm2.945.067l.894-.449-.27-.538-.601-.013-.023 1zM58.884 254l-.894.449.277.551h.617v-1zm10.528 0v1h.64l.267-.581-.907-.419zm1.913-4.145v-1h-.64l-.268.581.908.419zm2.81 0v1h.363l.278-.232-.64-.768zm3.498-2.916l.64.768.363-.303-.003-.472-1 .007zm-.27-42.69l1-.006-.004-.584-.51-.284-.486.874zm-5.093-2.83l-1 .011.006.581.508.282.486-.874zm-.147-14.229l-.564-.826-.441.301.005.535 1-.01zm5.117-3.49l.563.826.423-.288.014-.512-1-.026zm.135-5.17l-.603-.798-.384.29-.013.481 1 .027zm1.754-1.326v-1h-.335l-.267.202.602.798zm4.86 0l.674-.739-.287-.261h-.388v1zm19.901-72.957v1h.989l.011-.989-1-.011zm.094-8.624l1 .01.011-1.018-1.019.008.008 1zm-15.994 8.624l-1 .019.018.981h.982v-1zm-.094-4.968l-.717-.697-.29.299.007.417 1-.02zm3.46-3.562l-.007-1-.418.003-.292.3.718.697zm-67.995 8.811h-1v1h1v-1zm0-8.626v-1h-1v1h1zm15.993 8.626v1h.982l.018-.981-1-.019zm.094-4.968l1 .019.007-.408-.28-.297-.727.686zM36 95.902l.727-.686-.296-.314H36v1zm68.351 65.574l-.007 1 1.018.008-.011-1.019-1 .011zm-.093-8.625l.999-.01-.01-.99h-.989v1zm-12.534 8.531l-.717.697.291.3.419.003.007-1zm-3.46-3.562l-1-.019-.008.417.29.299.717-.697zm.093-4.969v-1h-.982l-.018.982 1 .018zm-64.905-.433v-1h-.989l-.01.989 1 .011zm-.093 8.624l-1-.01-.011 1.018 1.018-.008-.007-1zm15.994-8.624l1-.019-.018-.981h-.982v1zm.094 4.968l.717.697.29-.299-.007-.416-1 .018zm-3.46 3.563l.007 1 .418-.003.291-.301-.717-.696zm81.203 20.028H89.215v2h27.976v-2zm2.075-2.965l-2.835 3.315 1.52 1.299 2.835-3.314-1.52-1.3zm-.78-99.704l.54 100.359 2-.01-.54-100.36-2 .01zm-2.67-2.21l2.969 2.918 1.401-1.427-2.969-2.917-1.401 1.427zm-28.314.42l29.019-.133-.009-2-29.019.133.01 2zm-3.791 3.917l4.47-4.187-1.367-1.46-4.47 4.188 1.367 1.46zm-4.974.325l4.303-.055-.026-2-4.302.056.025 2zm-2.732-1.63l2.16 1.46 1.12-1.658-2.16-1.459-1.12 1.658zm-.496-5.838l.056 5.021 2-.022-.056-5.022-2 .022zm-3.444-1.137l3.993 2.018.902-1.785-3.993-2.018-.902 1.785zm-.55-16.258v15.365h2V55.897h-2zm5.035-3.893l-4.589 3.061 1.11 1.664 4.589-3.061-1.11-1.664zm-.715-41.574l.27 42.412 2-.012-.27-42.413-2 .013zm-2.567-2.375l2.835 3.05 1.464-1.362-2.834-3.05-1.465 1.362zm-1.157.32H74v-2h-1.89v2zm-4.342-4.743l3.567 4.374 1.55-1.264-3.567-4.374-1.55 1.264zM58.826 4h9.718V2h-9.718v2zM56.15 7.873l3.452-4.242L58.05 2.37 54.6 6.61l1.551 1.263zm-2.53.369h1.755v-2H53.62v2zm-2.074 2.964L54.38 7.89l-1.52-1.3-2.834 3.315 1.52 1.3zm.24 41.377V10.556h-2v42.027h2zm4.008 3.385l-4.319-4.11-1.379 1.449 4.32 4.11 1.378-1.45zM56.24 71l-.135-14.318-2 .019.135 14.318 2-.019zm-4.907 3.763l4.455-2.917-1.096-1.673-4.454 2.917 1.096 1.673zm.453 3.406v-4.243h-2v4.243h2zm-1.563 2.34l1.35-1.724-1.575-1.233-1.35 1.724 1.575 1.233zm-6.093.414l5.312-.03-.012-2-5.311.03.011 2zm-5.378-4.82l4.676 4.537 1.393-1.435-4.676-4.538-1.393 1.435zm-27.638.547l28.344-.266-.02-2-28.343.266.019 2zM8.73 79.649l3.104-3.315-1.46-1.367-3.104 3.314 1.46 1.368zm.405 98.747L9 78.964l-2 .002.135 99.432 2-.002zm3.725 2.976l-4.05-3.712-1.35 1.474 4.048 3.712 1.352-1.474zm26.713-.528l-27.399.265.02 2 27.399-.265-.02-2zm3.878-4.466l-4.589 4.773 1.442 1.386 4.589-4.773-1.442-1.386zm5.281-.439l-4.589.133.058 1.999 4.589-.133-.058-1.999zm2.812 1.942l-2.16-1.724-1.247 1.563 2.16 1.724 1.247-1.563zm.377 6.217v-5.436h-2v5.436h2zm1.578.512l-2.025-1.345-1.107 1.666 2.025 1.345 1.107-1.666zm2.564 1.704L53.5 184.61l-1.107 1.666 2.564 1.704 1.107-1.666zm.582 15.54l-.135-14.716-2 .018.135 14.716 2-.018zm-5.457 4.034l4.994-3.182-1.075-1.686-4.994 3.181 1.075 1.687zm.328 40.789l.135-41.629-2-.007-.135 41.629 2 .007zm3.06 2.451l-3.374-3.182-1.372 1.455 3.374 3.182 1.372-1.455zm2.282-.206l-2.945-.066-.045 1.999 2.945.066.045-1.999zm2.92 4.629l-2.049-4.078-1.787.897 2.048 4.079 1.788-.898zm9.634-.551H58.884v2h10.528v-2zm1.005-3.564l-1.913 4.145 1.816.838 1.913-4.144-1.816-.839zm3.719-.581h-2.81v2h2.81v-2zm2.856-2.684l-3.497 2.916 1.281 1.536 3.497-2.916-1.28-1.536zm-.63-41.915l.27 42.689 2-.013-.27-42.689-2 .013zm-4.578-1.963l5.093 2.83.972-1.748-5.093-2.83-.972 1.748zm-.661-15.093l.147 14.23 2-.021-.147-14.23-2 .021zm5.553-4.326l-5.117 3.49 1.127 1.652 5.117-3.49-1.126-1.652zm-.3-4.371l-.136 5.171 2 .052.135-5.17-2-.053zm2.15-2.097l-1.754 1.326 1.206 1.595 1.754-1.325-1.205-1.596zm5.462-.202H79.13v2h4.86v-2zm5.901 5.034l-5.226-4.773-1.349 1.477 5.227 4.773 1.348-1.477zm15.001-76.98l.094-8.624-2-.022-.094 8.625 2 .021zm-16.9.989h15.9v-2h-15.9v2zm-1.094-5.95l.094 4.969 2-.037-.094-4.969-2 .038zm3.743-4.277l-3.46 3.562 1.434 1.394 3.461-3.563-1.435-1.393zm13.337-.397l-12.627.094.015 2 12.627-.094-.015-2zm-79.615 9.905v-8.626h-2v8.626h2zm14.993-1H23.361v2h15.993v-2zm-.906-3.987l-.093 4.968 2 .038.093-4.968-2-.038zm-3.175-2.954l3.447 3.658 1.456-1.371-3.448-3.658-1.455 1.371zm-11.912.315H36v-2H23.36v2zm81.991 64.563l-.094-8.624-1.999.021.093 8.625 2-.022zm-13.634.917l12.627.094.014-2-12.627-.094-.014 2zm-4.171-3.865l3.46 3.562 1.435-1.394-3.46-3.562-1.435 1.394zm-.19-5.684l-.093 4.968 2 .038.094-4.969-2-.037zm16.902-.982H88.358v2h15.901v-2zm-81.805.556l-.094 8.625 2 .021.093-8.624-2-.022zm16.9-.989h-15.9v2h15.9v-2zm1.094 5.95l-.094-4.969-2 .038.094 4.968 2-.037zm-3.744 4.277l3.461-3.562-1.434-1.393-3.461 3.562 1.434 1.393zm-13.337.397l12.628-.093-.015-2-12.627.093.014 2z" fill="#8A9AA8"/>
</svg>
