<svg width="128" height="128" fill="none" xmlns="http://www.w3.org/2000/svg">
  <g clip-path="url(#clip0)">
    <path fill-rule="evenodd" clip-rule="evenodd" d="M55.804 121.685H6.072l-3.586-3.828V71.475l3.917-3.662h12.643V28.98l3.995-3.734v-5.957L37.407 5.856h6.35l3.605-3.37H80.68l4.05 3.787h6.749l13.765 12.87v6.3l3.87 3.617v38.945h12.527l3.872 3.621V117.6l-4.399 4.113H72.45l-4.068 3.803h-8.481l-4.097-3.83zm27.108-34.739H45.03L34.82 76.805v-10.9l-1.487-2.647V33.416l4.378-3.517v-4.53l8.09-7.58h6.291l4.131-3.87H72.26l4.032 3.777h6.835l7.7 7.216v4.235l4.23 3.964v29.466l-2.185 3.547v11.49l-9.96 9.332zm36.846-23.087h5.757V9.806h-10.132v7.876l3.972 3.722.403 42.453zM8.414 63.642h-5.93v-53.62h9.96v7.606l-4.03 3.776v42.238z" fill="#576675"/>
    <path d="M6.071 121.685l-.73.683.297.317h.433v-1zm49.733 0l.683-.731-.288-.269h-.395v1zm-53.319-3.828h-1v.395l.27.289.73-.684zm0-46.382l-.682-.73-.318.296v.434h1zm3.917-3.662v-1h-.395l-.288.27.683.73zm12.643 0v1h1v-1h-1zm0-38.833l-.683-.73-.317.296v.434h1zm3.995-3.734l.683.73.317-.296v-.434h-1zm0-5.957l-.683-.73-.317.296v.434h1zM37.407 5.856v-1h-.394l-.289.27.683.73zm6.35 0v1h.395l.288-.27-.683-.73zm3.605-3.37v-1h-.395l-.288.27.683.73zm33.319 0l.683-.73-.289-.27h-.394v1zm4.05 3.787l-.683.73.289.27h.394v-1zm6.749 0l.683-.73-.288-.27h-.395v1zm13.765 12.87h1v-.434l-.317-.296-.683.73zm0 6.3h-1v.434l.318.296.682-.73zm3.87 3.617h1v-.434l-.317-.296-.683.73zm0 38.945h-1v1h1v-1zm12.527 0l.683-.73-.289-.27h-.394v1zm3.872 3.621h1v-.434l-.317-.296-.683.73zm0 45.973l.683.73.317-.296v-.434h-1zm-4.399 4.113v1h.395l.288-.27-.683-.73zm-48.665 0v-1h-.395l-.289.269.683.731zm-4.068 3.803v1h.395l.288-.27-.683-.73zm-8.481 0l-.683.73.288.27h.395v-1zM45.03 86.946l-.706.71.293.29h.412v-1zm37.881 0v1h.396l.288-.27-.684-.73zM34.82 76.805h-1v.416l.295.293.705-.71zm0-10.9h1v-.261l-.128-.228-.872.49zm-1.487-2.647h-1v.261l.128.228.872-.49zm0-29.842l-.626-.78-.374.3v.48h1zm4.378-3.517l.626.78.374-.3v-.48h-1zm0-4.53l-.684-.73-.316.297v.434h1zm8.09-7.58v-1h-.395l-.288.27.684.73zm6.291 0v1h.395l.289-.27-.684-.73zm4.131-3.87v-1h-.395l-.289.27.684.73zm16.038 0l.683-.73-.288-.27h-.395v1zm4.032 3.777l-.684.73.288.27h.396v-1zm6.835 0l.684-.73-.289-.27h-.395v1zm7.7 7.216h1v-.434l-.316-.296-.684.73zm0 4.235h-1v.434l.317.296.683-.73zm4.23 3.964h1v-.433l-.315-.297-.684.73zm0 29.466l.852.525.149-.241v-.284h-1zm-2.185 3.547l-.851-.524-.149.24v.284h1zm0 11.49l.684.73.316-.297v-.433h-1zm32.643-13.756v1h1v-1h-1zm-5.757 0l-1 .01.01.99h.99v-1zm5.757-54.05h1v-1h-1v1zm-10.132 0v-1h-1v1h1zm0 7.875h-1v.434l.316.296.684-.73zm3.972 3.722l1-.01-.004-.427-.312-.293-.684.73zM2.485 63.643h-1v1h1v-1zm5.93 0v1h1v-1h-1zm-5.93-53.62v-1h-1v1h1zm9.96 0h1v-1h-1v1zm0 7.606l.683.73.316-.296v-.434h-1zm-4.03 3.776l-.684-.73-.317.297v.433h1zM6.07 122.685h49.733v-2H6.072v2zm-4.315-4.144l3.586 3.827 1.46-1.367-3.587-3.828-1.46 1.368zm-.27-47.066v46.382h2V71.475h-2zm4.233-4.392l-3.916 3.662 1.365 1.46 3.917-3.661-1.366-1.461zm13.326-.27H6.402v2h12.643v-2zm-1-37.833v38.833h2V28.98h-2zm4.312-4.465l-3.995 3.735 1.366 1.46 3.995-3.734-1.366-1.46zm-.317-5.226v5.957h2v-5.957h-2zM36.724 5.125L22.357 18.558l1.366 1.461L38.09 6.586l-1.366-1.46zm7.033-.27h-6.35v2h6.35v-2zm2.922-3.1l-3.605 3.37 1.366 1.461 3.605-3.37-1.366-1.46zm34.002-.27H47.36v2h33.32v-2zm4.733 4.057l-4.05-3.787-1.366 1.461 4.05 3.787 1.366-1.46zm6.066-.27h-6.75v2h6.749v-2zm14.448 13.14L92.163 5.543l-1.366 1.461 13.766 12.87 1.365-1.46zm.317 7.03v-6.3h-2v6.3h2zm3.553 2.888l-3.87-3.618-1.365 1.461 3.869 3.618 1.366-1.461zm.317 39.675V29.06h-2v38.945h2zm11.527-1h-12.527v2h12.527v-2zm4.555 3.89l-3.872-3.62-1.366 1.46 3.873 3.622 1.365-1.461zm.317 46.704V71.626h-2V117.6h2zm-4.716 4.843l4.399-4.113-1.365-1.461-4.4 4.113 1.366 1.461zm-49.349.27h48.666v-2H72.45v2zm-3.384 3.533l4.067-3.803-1.366-1.461-4.067 3.803 1.366 1.461zm-9.164.27h8.481v-2h-8.481v2zm-4.78-4.1l4.097 3.83 1.366-1.461-4.097-3.83-1.366 1.461zm-10.09-34.469h37.881v-2H45.03v2zM34.113 77.514l10.211 10.142 1.41-1.42-10.212-10.14-1.409 1.418zm-.295-11.609v10.9h2v-10.9h-2zm-1.359-2.158l1.487 2.648 1.744-.98-1.487-2.647-1.744.98zm-.128-30.331v29.842h2V33.416h-2zm4.752-4.297l-4.378 3.517 1.253 1.56 4.377-3.518-1.252-1.559zm-.374-3.75v4.53h2v-4.53h-2zm8.407-8.31l-8.09 7.58 1.367 1.46 8.09-7.58-1.367-1.46zm6.974-.27H45.8v2h6.29v-2zm3.447-3.6l-4.13 3.87 1.367 1.46 4.13-3.87-1.367-1.46zm16.722-.27H56.222v2H72.26v-2zm4.715 4.048l-4.032-3.778-1.367 1.46 4.032 3.777 1.367-1.46zm6.152-.27h-6.835v2h6.835v-2zm8.384 7.485l-7.7-7.215-1.368 1.46 7.7 7.214 1.368-1.46zm.316 4.965v-4.235h-2v4.235h2zm3.915 3.234l-4.23-3.964-1.368 1.46 4.23 3.964 1.368-1.46zm.316 30.196V33.111h-2v29.466h2zm-2.334 4.072l2.185-3.547-1.703-1.05L92.02 65.6l1.703 1.049zm.148 10.965v-11.49h-2v11.49h2zM83.596 87.676l9.96-9.332-1.367-1.46-9.96 9.332 1.367 1.46zm41.919-24.818h-5.757v2h5.757v-2zm-1-53.05v54.05h2V9.809h-2zm-9.132 1h10.132v-2h-10.132v2zm1 6.875V9.807h-2v7.876h2zm3.656 2.992l-3.972-3.722-1.368 1.46 3.973 3.722 1.367-1.46zm.719 43.174l-.403-42.453-2 .019.403 42.453 2-.019zm-118.273.794h5.93v-2h-5.93v2zm-1-54.62v53.62h2v-53.62h-2zm10.96-1h-9.96v2h9.96v-2zm1 8.606v-7.606h-2v7.606h2zm-4.347 4.506l4.03-3.776-1.367-1.46-4.03 3.776 1.367 1.46zm.316 41.508V21.405h-2v42.238h2z" fill="#8A9AA8"/>
  </g>
  <defs>
    <clipPath id="clip0">
      <path d="M0 0h128v128H0V0z" fill="#fff"/>
    </clipPath>
  </defs>
</svg>
