<svg width="128" height="128" fill="none" xmlns="http://www.w3.org/2000/svg">
  <g clip-path="url(#clip0)">
    <path d="M115.575 9.062H73.857l-1.79-6.65c-5.556.07-10.446.007-16.133 0l-1.791 6.65H12.425c-1.132 1.176-2.298 2.294-3.363 3.363v41.718l-6.65 1.79c.072 5.81.008 9.858 0 16.133l6.65 1.791v41.718c1.176 1.132 2.294 2.298 3.363 3.363h41.718l1.79 6.65c5.556-.07 10.446-.007 16.133 0l1.791-6.65h41.718c1.132-1.176 2.298-2.294 3.363-3.363V73.857l6.65-1.79c-.072-5.81-.008-9.859 0-16.133l-6.65-1.791V12.425l-3.363-3.363z" fill="#576675" stroke="#8A9AA8" stroke-width="2"/>
  </g>
  <defs>
    <clipPath id="clip0">
      <path d="M0 0h128v128H0V0z" fill="#fff"/>
    </clipPath>
  </defs>
</svg>
