<svg width="256" height="256" fill="none" xmlns="http://www.w3.org/2000/svg">
  <g clip-path="url(#clip0)">
    <path fill-rule="evenodd" clip-rule="evenodd" d="M122.63 253.593h10.004l3.095-4.641h3.3l3.197-3.197v-27.23l3.095-3.094h69.207v-77.458l2.321-2.321h34.719l1.83-1.83v-11.821l-1.79-1.79h-34.811l-2.052-2.052V40.974h-69.146l-3.063-3.063V10.708l-3.464-3.464h-3.683l-2.793-4.837h-9.554l-2.487 4.307h-5.558l-1.659 2.874V37.72l-3.45 3.451H40.53v76.947l-1.985 1.986H4.018l-1.611 1.611v12.751l1.27 1.27h34.79l2.202 2.201v77.197h68.759l3.604 3.604v26.736l2.864 2.864h3.739l2.995 5.255z" fill="#576675" stroke="#8A9AA8" stroke-width="2"/>
  </g>
  <defs>
    <clipPath id="clip0">
      <path d="M0 0h256v256H0V0z" fill="#fff"/>
    </clipPath>
  </defs>
</svg>
