<svg width="256" height="256" fill="none" xmlns="http://www.w3.org/2000/svg">
  <path fill-rule="evenodd" clip-rule="evenodd" d="M15.457 9.042H9.521l-.115 45.625-6.938 6.894v5.195l6.992 7.026v109.05l-6.504 6.535v6.233l6.394 6.424v43.784l3.43 3.446h64.195l1.587-1.595v-4.833l3.275-3.291h11.156l1.583 1.591v4.791l3.233 3.248h6.157l2.983-2.998v-6.041l1.763-1.771h4.742l2.118 1.228v10.763h3.826l3.238 3.254h12.721l2.79-2.804h2.926v-10.998l1.579-1.586h5.102l1.724 1.731v6.001l3.054 3.069h6.671l2.884-2.897v-4.184l2.321-2.332h10.529l3.158 3.172v4.25l1.844 1.853h63.641l3.408-3.424v-43.343l6.383-6.412v-6.57l-6.059-6.087V73.112l6.22-6.25V61.36l-6.399-6.43V9.001h-6.096l-5.064-5.087h-83.218l-1.774 1.782v5.674l-3.185 3.2h-3.91l-2.896-2.91V5.588h-4.959l-3.149-3.164h-9.194l-3.113 3.127h-4.914v6.556l-2.76 2.774h-4.362l-3.203-3.22V5.442l-1.557-1.564H20.597l-5.14 5.165zM76.594 43h17.818v3.108l-1.702 1.698H78.55l-2.047-2.042.09-2.764zm85.011.204h17.819l.091 2.765-2.046 2.041h-14.161l-1.703-1.698v-3.108zM68.553 157.033v11.275l.009.451H59.48L57 166.284v-10.299l1.992-1.987h6.519l3.042 3.035zm19.268 40.4h10.937l1.92-1.915v-6.468l-3.06-3.054H86.372v9.269l1.449 2.168zm-11.227 15.972h17.818v-3.108l-1.702-1.698H78.55l-2.047 2.042.09 2.764zm102.83.205h-17.819v-3.108l1.703-1.698h14.161l2.046 2.041-.091 2.765zm-22.165-15.973h10.938l1.449-2.168V186.2H158.4l-3.06 3.054v6.468l1.919 1.915zm30.206-29.125v-11.274l3.042-3.036h6.519l1.992 1.988v10.298l-2.481 2.476h-9.081l.009-.452zM168.197 59.177h-10.938l-1.919 1.915v6.468l3.06 3.053h11.246v-9.268l-1.449-2.169zm19.268 40.4V88.301l-.009-.452h9.081l2.481 2.476v10.298l-1.992 1.988h-6.519l-3.042-3.035zM98.758 58.971H87.821l-1.449 2.168v9.27h11.246l3.06-3.054v-6.469l-1.92-1.915zM68.553 88.098v11.274l-3.042 3.035h-6.52L57 100.42V90.121l2.48-2.475h9.082l-.009.452z" fill="#576675"/>
  <path d="M9.52 9.042v-1h-.997l-.002.997 1 .003zm5.937 0v1h.416l.293-.295-.709-.705zM9.406 54.667l.705.71.294-.293v-.414l-1-.003zm-6.938 6.894l-.705-.71-.295.294v.416h1zm0 5.195h-1v.413l.291.293.709-.706zm6.992 7.026h1v-.413l-.291-.293-.71.706zm0 109.05l.709.705.29-.292v-.413h-1zm-6.504 6.535l-.709-.705-.291.292v.413h1zm0 6.233h-1v.413l.291.292.709-.705zm6.394 6.424h1v-.413l-.291-.292-.71.705zm0 43.784h-1v.412l.29.293.71-.705zm3.43 3.446l-.709.706.293.294h.416v-1zm64.195 0v1h.415l.293-.294-.708-.706zm1.587-1.595l.71.705.29-.292v-.413h-1zm0-4.833l-.708-.706-.292.293v.413h1zm3.275-3.291v-1h-.416l-.293.295.709.705zm11.156 0l.709-.705-.293-.295h-.416v1zm1.583 1.591h1v-.412l-.29-.293-.71.705zm0 4.791h-1v.413l.292.293.708-.706zm3.233 3.248l-.71.705.294.295h.415v-1zm6.157 0v1h.415l.293-.295-.708-.705zm2.983-2.998l.709.706.291-.293v-.413h-1zm0-6.041l-.709-.705-.291.292v.413h1zm1.763-1.771v-1h-.415l-.294.294.709.706zm4.742 0l.502-.865-.233-.135h-.269v1zm2.118 1.228h1v-.576l-.498-.289-.502.865zm0 10.763h-1v1h1v-1zm3.826 0l.709-.705-.293-.295h-.416v1zm3.238 3.254l-.709.705.294.295h.415v-1zm12.721 0v1h.416l.293-.295-.709-.705zm2.79-2.804v-1h-.416l-.293.295.709.705zm2.926 0v1h1v-1h-1zm0-10.998l-.708-.706-.292.293v.413h1zm1.579-1.586v-1h-.416l-.293.294.709.706zm5.102 0l.709-.706-.293-.294h-.416v1zm1.724 1.731h1v-.412l-.292-.293-.708.705zm0 6.001h-1v.413l.291.293.709-.706zm3.054 3.069l-.709.705.293.295h.416v-1zm6.671 0v1h.416l.293-.295-.709-.705zm2.884-2.897l.709.705.291-.292v-.413h-1zm0-4.184l-.709-.706-.291.293v.413h1zm2.321-2.332v-1h-.415l-.294.294.709.706zm10.529 0l.709-.706-.293-.294h-.416v1zm3.158 3.172h1v-.412l-.291-.293-.709.705zm0 4.25h-1v.413l.291.293.709-.706zm1.844 1.853l-.709.706.293.294h.416v-1zm63.641 0v1h.416l.293-.294-.709-.706zm3.408-3.424l.709.705.291-.293v-.412h-1zm0-43.343l-.708-.705-.292.292v.413h1zm6.383-6.412l.708.705.292-.293v-.412h-1zm0-6.57h1v-.413l-.292-.292-.708.705zm-6.059-6.087h-1v.413l.291.292.709-.705zm0-109.927l-.709-.706-.291.293v.413h1zm6.22-6.25l.709.706.291-.293v-.413h-1zm0-5.503h1v-.413l-.291-.293-.709.706zm-6.399-6.43h-1v.413l.291.293.709-.706zm0-45.928h1v-1h-1v1zm-6.096 0l-.709.706.293.294h.416v-1zm-5.064-5.087l.709-.706-.293-.294h-.416v1zm-83.218 0v-1h-.416l-.293.294.709.706zm-1.774 1.782l-.709-.706-.291.293v.413h1zm0 5.674l.709.705.291-.292v-.413h-1zm-3.185 3.2v1h.415l.293-.294-.708-.706zm-3.91 0l-.708.706.293.294h.415v-1zm-2.896-2.91h-1v.413l.292.293.708-.705zm0-6.073h1v-1h-1v1zm-4.959 0l-.708.705.293.295h.415v-1zm-3.149-3.164l.709-.706-.293-.294h-.416v1zm-9.194 0v-1h-.416l-.293.294.709.706zm-3.113 3.127v1h.416l.293-.294-.709-.706zm-4.914 0v-1h-1v1h1zm0 6.556l.709.706.291-.293v-.413h-1zm-2.76 2.774v1h.416l.293-.295-.709-.706zm-4.362 0l-.708.705.293.294h.415v-1zm-3.203-3.22h-1v.413l.291.293.709-.705zm0-6.219h1v-.413l-.291-.292-.709.705zm-1.557-1.564l.709-.705-.293-.295h-.416v1zm-83.182 0v-1h-.415l-.293.295.708.705zM94.412 43h1v-1h-1v1zm-17.819 0v-1h-.967l-.032.967 1 .033zm17.82 3.108l.706.708.293-.294v-.414h-1zm-1.703 1.698v1h.414l.292-.292-.706-.708zm-14.16 0l-.707.708.293.292h.413v-1zm-2.047-2.042l-1-.032-.014.434.308.306.706-.708zm102.921-2.56l1-.032-.032-.968h-.968v1zm-17.819 0v-1h-1v1h1zm17.91 2.765l.706.708.308-.307-.015-.434-.999.033zm-2.046 2.041v1h.413l.293-.292-.706-.708zm-14.161 0l-.707.708.293.292h.414v-1zm-1.703-1.698h-1v.415l.294.293.706-.708zM68.553 168.308h-1v.018l1-.018zm0-11.275h1v-.415l-.293-.293-.707.708zm.009 11.726v1h1.018l-.019-1.018-1 .018zm-9.081 0l-.706.708.292.292h.414v-1zM57 166.284h-1v.415l.294.293.706-.708zm0-10.299l-.706-.708-.294.293v.415h1zm1.992-1.987v-1h-.414l-.292.292.706.708zm6.519 0l.706-.708-.292-.292h-.414v1zm33.247 43.435v1h.414l.293-.292-.707-.708zm-10.937 0l-.832.556.297.444h.535v-1zm12.857-1.915l.706.708.294-.293v-.415h-1zm0-6.468h1v-.415l-.294-.293-.706.708zm-3.06-3.054l.706-.708-.293-.292h-.413v1zm-11.246 0v-1h-1v1h1zm0 9.269h-1v.303l.169.252.831-.555zm8.04 18.14v1h1v-1h-1zm-17.819 0l-.999.033.032.967h.968v-1zm17.82-3.108h1v-.414l-.294-.293-.707.707zm-1.703-1.698l.706-.708-.292-.292h-.414v1zm-14.16 0v-1h-.414l-.293.292.706.708zm-2.047 2.042l-.706-.708-.308.307.014.433 1-.032zm85.102 2.969h-1v1h1v-1zm17.819 0v1h.968l.032-.968-1-.032zm-17.819-3.108l-.706-.708-.294.293v.415h1zm1.703-1.698v-1h-.414l-.293.292.707.708zm14.161 0l.706-.708-.293-.292h-.413v1zm2.046 2.041l.999.033.015-.434-.308-.307-.706.708zm-11.318-13.208v1h.535l.296-.444-.831-.556zm-10.938 0l-.706.708.293.292h.413v-1zm12.387-2.168l.831.556.169-.252v-.304h-1zm0-9.269h1v-1h-1v1zm-11.246 0v-1h-.413l-.293.293.706.707zm-3.06 3.054l-.706-.708-.294.293v.415h1zm0 6.468h-1v.415l.294.293.706-.708zm32.125-38.484l-.707-.708-.293.293v.415h1zm0 11.274l.999.019.001-.01v-.009h-1zm3.042-14.31v-1h-.414l-.292.292.706.708zm6.519 0l.706-.708-.293-.292h-.413v1zm1.992 1.988h1v-.415l-.294-.293-.706.708zm0 10.298l.706.708.294-.293v-.415h-1zm-2.481 2.476v1h.414l.292-.292-.706-.708zm-9.081 0l-1-.019-.019 1.019h1.019v-1zM157.259 59.177v-1h-.413l-.293.292.706.707zm10.938 0l.831-.556-.296-.445h-.535v1zm-12.857 1.915l-.706-.708-.294.293v.415h1zm0 6.468h-1v.415l.294.293.706-.708zm3.06 3.053l-.706.708.293.293h.413v-1zm11.246 0v1h1v-1h-1zm0-9.268h1v-.304l-.169-.252-.831.556zm17.819 26.957h1v-.01l-.001-.008-.999.018zm0 11.274h-1v.415l.293.293.707-.708zm-.009-11.726v-1h-1.019l.019 1.019 1-.019zm9.081 0l.706-.708-.292-.292h-.414v1zm2.481 2.476h1v-.415l-.294-.293-.706.708zm0 10.298l.706.708.294-.293v-.415h-1zm-1.992 1.988v1h.413l.293-.292-.706-.708zm-6.519 0l-.706.708.292.292h.414v-1zM87.821 58.972v-1h-.535l-.297.444.832.556zm10.937 0l.707-.708-.293-.292h-.414v1zM86.372 61.14l-.831-.555-.169.252v.303h1zm0 9.27h-1v1h1v-1zm11.246 0v1h.413l.293-.293-.706-.708zm3.06-3.054l.706.708.294-.293v-.415h-1zm0-6.469h1v-.415l-.294-.293-.706.708zM68.553 99.372l.707.708.293-.293v-.415h-1zm0-11.274l-1-.019v.019h1zm-3.042 14.309v1h.414l.292-.292-.706-.708zm-6.52 0l-.705.708.292.292h.414v-1zM57 100.42h-1v.415l.294.293.706-.708zm0-10.299l-.706-.708-.294.293v.415h1zm2.48-2.475v-1h-.413l-.292.292.706.708zm9.082 0l1 .019.019-1.02h-1.02v1zM9.52 10.042h5.936v-2H9.521v2zm.885 44.628l.115-45.625-2-.006-.115 45.626 2 .005zm-7.233 7.6l6.938-6.893-1.41-1.419-6.938 6.894 1.41 1.418zm.295 4.486v-5.195h-2v5.195h2zm6.7 6.32l-6.991-7.025-1.418 1.41 6.992 7.026 1.418-1.41zm.292 109.756V73.782h-2v109.05h2zm-6.795 7.241l6.504-6.536-1.418-1.41-6.504 6.535 1.418 1.411zm.29 5.527v-6.233h-2v6.233h2zm6.104 5.719l-6.394-6.425-1.418 1.411 6.394 6.425 1.418-1.411zm.29 44.489v-43.784h-2v43.784h2zm3.14 2.741l-3.43-3.447-1.418 1.411 3.43 3.447 1.418-1.411zm63.486-.295H12.78v2h64.195v-2zm.879-1.301l-1.588 1.596 1.417 1.411 1.588-1.596-1.417-1.411zm-.292-4.127v4.833h2v-4.833h-2zm3.566-3.996l-3.274 3.29 1.417 1.411 3.275-3.29-1.418-1.411zm11.865-.295H81.837v2h11.156v-2zm2.292 1.886l-1.583-1.591-1.418 1.411 1.584 1.591 1.417-1.411zm.291 5.496v-4.791h-2v4.791h2zm2.941 2.542l-3.232-3.247-1.417 1.411 3.232 3.247 1.417-1.411zm5.449-.294h-6.157v2h6.157v-2zm2.274-2.703l-2.983 2.997 1.417 1.411 2.984-2.997-1.418-1.411zm-.291-5.336v6.041h2v-6.041h-2zm2.054-2.477l-1.763 1.772 1.418 1.411 1.763-1.772-1.418-1.411zm5.451-.294h-4.742v2h4.742v-2zm2.62 1.363l-2.118-1.228-1.004 1.73 2.118 1.228 1.004-1.73zm.498 11.628v-10.763h-2v10.763h2zm2.826-1h-3.826v2h3.826v-2zm3.947 3.548l-3.238-3.253-1.417 1.411 3.237 3.253 1.418-1.411zm12.012-.294h-12.721v2h12.721v-2zm2.081-2.509l-2.79 2.803 1.418 1.411 2.79-2.803-1.418-1.411zm3.635-.295h-2.926v2h2.926v-2zm-1-9.998v10.998h2v-10.998h-2zm1.87-2.292l-1.578 1.586 1.417 1.411 1.579-1.586-1.418-1.411zm5.811-.294h-5.102v2h5.102v-2zm2.432 2.026l-1.723-1.732-1.418 1.411 1.724 1.732 1.417-1.411zm.292 6.706v-6.001h-2v6.001h2zm2.763 2.364l-3.055-3.069-1.417 1.411 3.054 3.068 1.418-1.41zm5.962-.295h-6.671v2h6.671v-2zm2.175-2.603l-2.883 2.898 1.417 1.41 2.884-2.897-1.418-1.411zm-.291-3.478v4.184h2v-4.184h-2zm2.612-3.038l-2.321 2.332 1.418 1.411 2.321-2.332-1.418-1.411zm11.238-.294h-10.529v2h10.529v-2zm3.867 3.467l-3.158-3.173-1.417 1.411 3.157 3.173 1.418-1.411zm.291 4.955v-4.25h-2v4.25h2zm1.553 1.148l-1.844-1.853-1.418 1.411 1.844 1.853 1.418-1.411zm62.932-.295h-63.641v2h63.641v-2zm2.7-3.13l-3.409 3.425 1.418 1.411 3.408-3.425-1.417-1.411zm-.292-42.637v43.343h2v-43.343h-2zm6.674-7.118l-6.382 6.413 1.417 1.411 6.382-6.413-1.417-1.411zm-.291-5.864v6.57h2v-6.57h-2zm-5.768-5.382l6.059 6.088 1.417-1.411-6.058-6.088-1.418 1.411zm-.291-110.632v109.927h2V73.112h-2zm6.511-6.955l-6.22 6.25 1.418 1.41 6.22-6.25-1.418-1.41zm-.291-4.798v5.503h2V61.36h-2zm-6.108-5.724l6.399 6.429 1.418-1.41-6.399-6.43-1.418 1.41zM246.133 9v45.93h2V9.001h-2zm-5.096 1h6.096V8h-6.096v2zm-5.772-5.382l5.063 5.088 1.418-1.411-5.064-5.088-1.417 1.411zm-82.51.295h83.218v-2h-83.218v2zM151.69 6.4l1.774-1.782-1.418-1.41-1.774 1.781L151.69 6.4zm.291 4.969V5.696h-2v5.674h2zm-3.477 3.906l3.186-3.2-1.418-1.412-3.185 3.2 1.417 1.412zm-4.618.294h3.91v-2h-3.91v2zm-3.604-3.204l2.896 2.91 1.417-1.411-2.896-2.91-1.417 1.411zm-.292-6.78v6.075h2V5.587h-2zm-3.959 1h4.959v-2h-4.959v2zm-3.858-3.458l3.15 3.164 1.417-1.41-3.149-3.165-1.418 1.411zm-8.485.295h9.194v-2h-9.194v2zm-2.404 2.833l3.113-3.128-1.418-1.41-3.113 3.127 1.418 1.41zm-5.623.294h4.914v-2h-4.914v2zm1 5.556V5.55h-2v6.556h2zm-3.051 3.479l2.76-2.773-1.418-1.411-2.76 2.773 1.418 1.41zm-5.071.294h4.362v-2h-4.362v2zm-3.912-3.513l3.204 3.219 1.417-1.411-3.203-3.219-1.418 1.411zm-.291-6.925v6.22h2V5.44h-2zm-1.265-.858l1.556 1.564 1.418-1.411-1.557-1.564-1.417 1.41zm-82.474.294h83.182v-2H20.597v2zm-4.431 4.87l5.14-5.164-1.418-1.411-5.14 5.165 1.418 1.41zM94.412 42H76.593v2h17.82v-2zm1 4.108V43h-2v3.108h2zm-1.996 2.406l1.703-1.698-1.413-1.416-1.702 1.698 1.412 1.416zm-14.867.292H92.71v-2H78.55v2zm-2.752-2.334l2.046 2.042 1.412-1.416-2.046-2.041-1.412 1.415zm-.203-3.505l-.09 2.765 1.998.065.09-2.764-1.998-.066zm103.83-.763h-17.819v2h17.819v-2zm1.09 3.732l-.09-2.764-1.999.065.09 2.764 1.999-.065zm-2.339 2.782l2.046-2.041-1.412-1.416-2.047 2.042 1.413 1.415zm-14.867.292h14.161v-2h-14.161v2zm-2.409-1.99l1.702 1.698 1.413-1.415-1.702-1.699-1.413 1.416zm-.294-3.816v3.108h2v-3.108h-2zM69.553 168.308v-11.275h-2v11.275h2zm.008.433l-.008-.452-2 .037.009.452 2-.037zm-10.08 1.018h9.08v-2h-9.08v2zm-3.187-2.767l2.48 2.475 1.413-1.416-2.48-2.475-1.413 1.416zM56 155.985v10.299h2v-10.299h-2zm2.286-2.695l-1.992 1.987 1.412 1.416 1.992-1.987-1.412-1.416zm7.225-.292h-6.52v2h6.52v-2zm3.749 3.327l-3.043-3.035-1.412 1.416 3.042 3.035 1.413-1.416zm29.498 40.108H87.821v2h10.937v-2zm1.214-1.623l-1.92 1.915 1.413 1.416 1.919-1.915-1.412-1.416zm-.294-5.76v6.468h2v-6.468h-2zm-2.767-2.346l3.06 3.053 1.413-1.415-3.06-3.054-1.413 1.416zm-10.539.292h11.246v-2H86.372v2zm1 8.269v-9.269h-2v9.269h2zm1.28 1.613l-1.448-2.169-1.663 1.111 1.448 2.169 1.663-1.111zm5.76 15.527H76.593v2h17.82v-2zm-1-2.108v3.108h2v-3.108h-2zm-1.408-.99l1.702 1.698 1.413-1.415-1.703-1.699-1.412 1.416zm-13.455.292H92.71v-2H78.55v2zm-1.34 1.75l2.046-2.042-1.412-1.416-2.046 2.042 1.412 1.416zm.384 2.023l-.09-2.764-2 .065.091 2.765 1.999-.066zm84.012 1.238h17.819v-2h-17.819v2zm-1-4.108v3.108h2v-3.108h-2zm1.996-2.406l-1.702 1.698 1.413 1.416 1.702-1.699-1.413-1.415zm14.868-.292h-14.161v2h14.161v-2zm2.752 2.333l-2.046-2.041-1.413 1.415 2.047 2.042 1.412-1.416zm.203 3.505l.09-2.764-1.999-.066-.09 2.765 1.999.065zm-12.227-17.005h-10.938v2h10.938v-2zm.617-1.723l-1.448 2.168 1.662 1.111 1.449-2.168-1.663-1.111zm-.168-8.714v9.269h2V186.2h-2zm-10.246 1h11.246v-2H158.4v2zm-2.354 2.762l3.061-3.054-1.413-1.415-3.06 3.053 1.412 1.416zm.294 5.76v-6.468h-2v6.468h2zm1.626 1.208l-1.92-1.916-1.412 1.416 1.919 1.915 1.413-1.415zm28.499-39.692v11.274h2v-11.274h-2zm3.336-3.744l-3.043 3.036 1.413 1.415 3.042-3.035-1.412-1.416zm7.225-.292h-6.519v2h6.519v-2zm2.698 2.28l-1.992-1.988-1.412 1.416 1.992 1.987 1.412-1.415zm.294 11.006V156.19h-2v10.298h2zm-2.775 3.184l2.481-2.476-1.412-1.416-2.481 2.476 1.412 1.416zm-9.787.292h9.081v-2h-9.081v2zm-.991-1.471l-.009.452 2 .037.008-.451-1.999-.038zM157.259 60.177h10.938v-2h-10.938v2zm-1.213 1.623l1.92-1.916-1.413-1.415-1.919 1.915 1.412 1.416zm.294 5.76v-6.468h-2v6.468h2zm2.767 2.346l-3.061-3.054-1.412 1.416 3.06 3.053 1.413-1.415zm10.539-.293H158.4v2h11.246v-2zm-1-8.268v9.269h2v-9.27h-2zm-1.28-1.613l1.448 2.168 1.663-1.11-1.449-2.17-1.662 1.112zm19.099 28.57v11.274h2V88.302h-2zm-.009-.433l.009.452 1.999-.037-.008-.452-2 .037zm10.081-1.019h-9.081v2h9.081v-2zm3.187 2.768l-2.481-2.476-1.412 1.416 2.481 2.476 1.412-1.416zm.294 11.006V90.326h-2v10.298h2zm-2.286 2.696l1.992-1.988-1.412-1.415-1.992 1.987 1.412 1.416zm-7.225.292h6.519v-2h-6.519v2zm-3.749-3.328l3.043 3.036 1.412-1.416-3.042-3.035-1.413 1.415zM87.821 59.972h10.937v-2H87.821v2zm-.617 1.724l1.448-2.168-1.663-1.111-1.448 2.168 1.663 1.11zm.168 8.713V61.14h-2v9.27h2zm10.246-1H86.372v2h11.246v-2zm2.354-2.761l-3.06 3.053 1.412 1.416 3.06-3.053-1.412-1.416zm-.294-5.76v6.468h2v-6.469h-2zm-1.626-1.208l1.92 1.915 1.412-1.416-1.92-1.915-1.412 1.416zM69.553 99.372V88.098h-2v11.274h2zm-3.336 3.743l3.043-3.035-1.413-1.416-3.042 3.036 1.412 1.415zm-7.225.292h6.519v-2h-6.52v2zm-2.698-2.279l1.992 1.987 1.412-1.415-1.992-1.988-1.412 1.416zM56 90.121v10.299h2V90.121h-2zm2.775-3.183l-2.481 2.475 1.412 1.416 2.481-2.475-1.412-1.416zm9.787-.292H59.48v2h9.08v-2zm.991 1.47l.008-.451-2-.038-.008.452 2 .037z" fill="#8A9AA8"/>
</svg>
