<svg width="256" height="256" fill="none" xmlns="http://www.w3.org/2000/svg">
  <path fill-rule="evenodd" clip-rule="evenodd" d="M7.439 2.915h30.288l3.337 3.322v1.585h35.063l1.643 1.635v6.645l2.053 2.045h13.04l1.694-1.687v-5.367l3.055-3.041h6.34l1.116 1.112v6.12l3.241 3.227s21.106-3.635 38.56.25l3.183-3.17V8.946l1.438-1.431h6.982l3.08 3.067v4.703l2.002 1.993h38.143l2.079-2.07v-6.67h10.755v-2.25l3.337-3.322h29.622l1.719 1.712V53.52s9.215 10.12 0 19.322v108.162s9.318 8.792 0 21.264v47.436l-3.324 3.31h-27.76l-3.716-3.7v-1.348l-2.342-.625h-32.701l-3.1-3.087v-5.029l-1.454-1.447h-9.923l-3.114 3.1v3.152l-2.833 2.82h-8.479l-1.596-1.589v-5.729l-1.743-1.736h-6.107v10.579h-5.082l-3.003 2.99h-9.318l-2.914-2.901h-5.351v-10.926h-6.982l-1.438 1.431v6.594l-1.257 1.253h-8.189l-2.785-2.773v-3.285l-3.33-3.316h-9.799l-1.717 1.709v4.572l-3.171 3.158H43.066l-1.828 1.82v2.025l-2.885 2.873H9.133l-2.957-2.945v-50.08s-7.937-7.814 0-19.059V73.417s-6.964-9.109 0-19.735V4.634l1.263-1.72zm114.07.102h12.937l6.006 5.98v3.63l-3.683.982h-17.108l-4.66-1.243V8.742l6.508-5.725zm-66.635 14.62c1.474 0 2.67-1.19 2.67-2.659a2.664 2.664 0 00-2.67-2.658 2.664 2.664 0 00-2.67 2.658 2.664 2.664 0 002.67 2.658zM182.59 40.958h17.86v4.77l-2.105 2.097h-14.448l-1.343-1.952.036-4.915zm-20.95 1.686h17.66l.051 3.322-1.386 1.38H163.18l-1.54-1.533v-3.17zm25.839 124.688h9.148l1.887-1.879v-10.699l-1.706-1.699h-5.772l-3.593 3.271.036 11.006zm-128.166.204h9.148l.037-11.006-3.594-3.271h-5.772l-1.706 1.699v10.699l1.887 1.879zm27.184 17.556v9.201l1.335 1.329h11.294l1.438-1.432v-6.031l-3.389-3.17-10.678.103zm-9.856 27.194H94.3v-3.17l-1.54-1.533H77.974l-1.386 1.38.052 3.323zm102.659-.205h-17.66v-3.169l1.54-1.534h14.785l1.386 1.381-.051 3.322zm-9.857-17.993v-9.201l-10.678-.102-3.389 3.169v6.032l1.438 1.431h11.294l1.335-1.329zm0-124.25v-9.201l-1.335-1.33h-11.294l-1.438 1.432v6.032l3.389 3.169 10.678-.103zm27.184 17.555h-9.148l-.036 11.006 3.593 3.271h5.772l1.706-1.699V89.274l-1.887-1.88zM94.301 42.236H76.64l-.052 3.322 1.386 1.38H92.76l1.54-1.533v-3.17zM86.497 69.43v-9.201l1.335-1.33h11.294l1.438 1.432v6.032l-3.389 3.169-10.678-.102zM59.313 86.985h9.148l.037 11.006-3.594 3.271h-5.772l-1.706-1.699V88.865l1.887-1.88zm-4.44 155.767c1.475 0 2.67-1.19 2.67-2.658a2.664 2.664 0 00-2.67-2.658 2.664 2.664 0 00-2.669 2.658 2.664 2.664 0 002.67 2.658zm149.083-2.658a2.664 2.664 0 01-2.67 2.658 2.664 2.664 0 01-2.669-2.658 2.664 2.664 0 012.669-2.658c1.475 0 2.67 1.19 2.67 2.658z" fill="#576675"/>
  <path d="M37.727 2.915l.706-.71-.293-.29h-.413v1zm-30.288 0v-1h-.507l-.3.408.807.592zm33.625 3.322h1v-.415l-.294-.294-.706.71zm0 1.585h-1v1h1v-1zm35.063 0l.706-.709-.293-.291h-.413v1zm1.643 1.635h1v-.415l-.294-.293-.706.708zm0 6.645h-1v.416l.294.293.706-.709zm2.053 2.045l-.705.709.293.291h.412v-1zm13.04 0v1h.413l.293-.291-.706-.709zm1.694-1.687l.706.709.294-.293v-.416h-1zm0-5.367l-.705-.709-.295.294v.415h1zm3.055-3.041v-1h-.413l-.293.291.706.709zm6.34 0l.705-.709-.292-.291h-.413v1zm1.116 1.112h1v-.416l-.294-.293-.706.709zm0 6.12h-1v.416l.295.293.705-.708zm3.241 3.227l-.706.709.367.365.509-.088-.17-.986zm38.56.25l-.217.976.535.119.388-.387-.706-.708zm3.183-3.17l.706.709.294-.293v-.416h-1zm0-6.645l-.705-.708-.295.293v.415h1zm1.438-1.431v-1h-.413l-.293.291.706.709zm6.982 0l.705-.709-.292-.291h-.413v1zm3.08 3.067h1v-.416l-.295-.293-.705.709zm0 4.703h-1v.415l.294.293.706-.708zm2.002 1.993l-.706.709.293.291h.413v-1zm38.143 0v1h.413l.293-.291-.706-.709zm2.079-2.07l.706.709.294-.293v-.416h-1zm0-6.67v-1h-1v1h1zm10.755 0v1h1v-1h-1zm0-2.25l-.705-.708-.295.293v.415h1zm3.337-3.322v-1h-.413l-.292.291.705.709zm29.622 0l.705-.709-.292-.291h-.413v1zm1.719 1.712h1v-.415l-.294-.294-.706.71zm0 48.842h-1v.387l.261.286.739-.673zm0 19.322l-.706-.708-.294.293v.415h1zm0 108.162h-1v.431l.314.296.686-.727zm0 21.264l-.801-.599-.199.267v.332h1zm0 47.436l.706.708.294-.293v-.415h-1zm-3.324 3.31v1h.413l.293-.292-.706-.708zm-27.76 0l-.706.708.293.292h.413v-1zm-3.716-3.7h-1v.416l.295.293.705-.709zm0-1.348h1v-.768l-.742-.198-.258.966zm-2.342-.625l.257-.966-.126-.034h-.131v1zm-32.701 0l-.706.708.293.292h.413v-1zm-3.1-3.087h-1v.416l.294.293.706-.709zm0-5.029h1v-.416l-.295-.293-.705.709zm-1.454-1.447l.706-.709-.293-.291h-.413v1zm-9.923 0v-1h-.413l-.293.291.706.709zm-3.114 3.1l-.706-.708-.294.293v.415h1zm0 3.152l.706.708.294-.293v-.415h-1zm-2.833 2.82v1h.413l.293-.291-.706-.709zm-8.479 0l-.706.709.293.291h.413v-1zm-1.596-1.589h-1v.416l.295.293.705-.709zm0-5.729h1v-.416l-.294-.293-.706.709zm-1.743-1.736l.705-.709-.292-.291h-.413v1zm-6.107 0v-1h-1v1h1zm0 10.579v1h1v-1h-1zm-5.082 0v-1h-.413l-.293.291.706.709zm-3.003 2.99v1h.412l.293-.291-.705-.709zm-9.318 0l-.706.709.293.291h.413v-1zm-2.914-2.901l.706-.708-.293-.292h-.413v1zm-5.351 0h-1v1h1v-1zm0-10.926h1v-1h-1v1zm-6.982 0v-1h-.413l-.293.291.706.709zm-1.438 1.431l-.705-.708-.295.293v.415h1zm0 6.594l.706.709.294-.293v-.416h-1zm-1.257 1.253v1h.413l.292-.292-.705-.708zm-8.189 0l-.705.708.292.292h.413v-1zm-2.785-2.773h-1v.415l.295.293.705-.708zm0-3.285h1v-.415l-.294-.293-.706.708zm-3.33-3.316l.706-.708-.293-.292h-.413v1zm-9.799 0v-1h-.413l-.293.292.706.708zm-1.717 1.709l-.705-.708-.295.293v.415h1zm0 4.572l.706.709.294-.293v-.416h-1zm-3.171 3.158v1h.413l.292-.291-.705-.709zm-33.615 0v-1h-.413l-.292.292.705.708zm-1.828 1.82l-.705-.708-.295.293v.415h1zm0 2.025l.706.709.294-.293v-.416h-1zm-2.885 2.873v1h.413l.293-.292-.706-.708zm-29.22 0l-.706.708.293.292h.413v-1zm-2.957-2.945h-1v.416l.294.293.706-.709zm0-50.08h1v-.419l-.299-.294-.701.713zm0-19.059l.817.576.183-.259v-.317h-1zm0-108.098h1v-.339l-.206-.269-.794.608zm0-19.735l.836.548.164-.25v-.298h-1zm0-49.048L5.37 4.04l-.194.265v.328h1zm128.27-1.617l.706-.709-.293-.291h-.413v1zm-12.937 0v-1h-.377l-.283.249.66.75zm18.943 5.98h1v-.415l-.294-.293-.706.708zm0 3.63l.258.966.742-.198v-.768h-1zm-3.683.982v1h.131l.127-.034-.258-.966zm-17.108 0l-.258.966.127.034h.131v-1zm-4.66-1.243h-1v.768l.742.198.258-.966zm0-3.624l-.661-.751-.339.299v.452h1zm85.449 32.217h1v-1h-1v1zm-17.86 0v-1h-.992l-.007.992.999.008zm17.86 4.77l.706.71.294-.294v-.415h-1zm-2.105 2.097v1h.413l.293-.291-.706-.709zm-14.448 0l-.823.567.298.433h.525v-1zm-1.343-1.952l-1-.007-.002.315.178.26.824-.568zm-3.254-3.23l1-.015-.016-.984h-.984v1zm-17.66 0v-1h-1v1h1zm17.711 3.323l.706.709.301-.3-.007-.424-1 .015zm-1.386 1.38v1h.413l.293-.29-.706-.71zm-14.785 0l-.706.71.293.29h.413v-1zm-1.54-1.533h-1v.415l.294.294.706-.709zm34.987 121.519v1h.413l.292-.291-.705-.709zm-9.148 0l-1 .003.003.997h.997v-1zm11.035-1.879l.706.708.294-.293v-.415h-1zm0-10.699h1v-.416l-.294-.293-.706.709zm-1.706-1.699l.706-.709-.293-.291h-.413v1zm-5.772 0v-1h-.387l-.286.26.673.74zm-3.593 3.271l-.673-.74-.329.299.002.444 1-.003zm-118.982 11.21v1h.997l.003-.996-1-.004zm-9.148 0l-.705.709.293.291h.412v-1zm9.184-11.006l1 .004.002-.444-.328-.299-.674.739zm-3.593-3.271l.673-.739-.286-.261h-.387v1zm-5.772 0v-1h-.413l-.293.292.706.708zm-1.706 1.699l-.706-.709-.294.294v.415h1zm0 10.699h-1v.415l.294.294.706-.709zm29.071 28.636h-1v.415l.295.293.705-.708zm0-9.201l-.01-1-.99.009v.991h1zm1.335 10.53l-.706.708.293.292h.413v-1zm11.294 0v1h.413l.293-.292-.706-.708zm1.438-1.432l.705.709.295-.293v-.416h-1zm0-6.031h1v-.434l-.317-.297-.683.731zm-3.389-3.17l.684-.73-.293-.273-.4.004.01.999zm-2.874 27.297v1h1v-1h-1zm-17.66 0l-1 .015.015.985h.985v-1zm17.66-3.17h1v-.415l-.295-.293-.705.708zm-1.54-1.533l.705-.709-.293-.291h-.413v1zm-14.786 0v-1h-.412l-.293.291.705.709zm-1.386 1.38l-.705-.708-.301.299.007.425 1-.016zm85.051 3.118h-1v1h1v-1zm17.66 0v1h.984l.016-.984-1-.016zm-17.66-3.169l-.706-.709-.294.293v.416h1zm1.54-1.534v-1h-.413l-.293.292.706.708zm14.785 0l.706-.708-.293-.292h-.413v1zm1.386 1.381l1 .015.007-.425-.301-.299-.706.709zm-9.908-23.872h1v-.99l-.991-.01-.009 1zm0 9.201l.705.709.295-.293v-.416h-1zm-10.678-9.303l.009-1-.4-.004-.292.274.683.73zm-3.389 3.169l-.683-.73-.317.296v.434h1zm0 6.032h-1v.416l.295.293.705-.709zm1.438 1.431l-.706.709.293.291h.413v-1zm11.294 0v1h.413l.293-.291-.706-.709zm1.335-134.78h1v-.416l-.295-.293-.705.709zm0 9.2l.009 1 .991-.009v-.99h-1zm-1.335-10.53l.706-.708-.293-.291h-.413v1zm-11.294 0v-1h-.413l-.293.292.706.709zm-1.438 1.432l-.705-.709-.295.293v.416h1zm0 6.032h-1v.433l.317.297.683-.73zm3.389 3.169l-.683.73.292.274.4-.004-.009-1zm28.714 17.453v-1h-.997l-.003.997 1 .003zm9.148 0l.705-.709-.292-.291h-.413v1zM187.443 98.4l-1-.003-.002.444.329.299.673-.74zm3.593 3.271l-.673.74.286.26h.387v-1zm5.772 0v1h.413l.293-.291-.706-.709zm1.706-1.699l.706.709.294-.293v-.416h-1zm0-10.698h1v-.416l-.294-.293-.706.709zM76.641 42.236v-1h-.985l-.015.984 1 .016zm17.66 0h1v-1h-1v1zm-17.712 3.322l-1-.015-.006.425.3.299.706-.709zm1.386 1.38l-.705.71.293.29h.412v-1zm14.785 0v1h.413l.293-.29-.706-.71zm1.54-1.533l.706.709.295-.293v-.416h-1zm-7.803 14.824l-.705-.709-.295.293v.416h1zm0 9.2h-1v.991l.99.01.01-1zm1.335-10.53v-1h-.413l-.293.292.706.709zm11.294 0l.706-.708-.293-.291h-.413v1zm1.438 1.432h1v-.416l-.295-.293-.705.709zm0 6.032l.683.73.317-.297v-.433h-1zm-3.389 3.169l-.01 1 .401.004.293-.274-.684-.73zM68.461 86.985l1-.003-.003-.997h-.997v1zm-9.148 0v-1H58.9l-.292.291.705.71zm9.184 11.006l.674.74.328-.3-.001-.443-1 .003zm-3.593 3.271v1h.387l.286-.26-.673-.74zm-5.772 0l-.706.709.293.291h.413v-1zm-1.706-1.699h-1v.416l.294.293.706-.709zm0-10.698l-.706-.709-.294.293v.416h1zM37.727 1.915H7.44v2h30.288v-2zm4.043 3.613l-3.337-3.322-1.411 1.417 3.337 3.323 1.41-1.418zm.294 2.294V6.237h-2v1.585h2zm34.063-1H41.064v2h35.063v-2zm2.349 1.927l-1.643-1.636-1.411 1.417 1.642 1.636 1.412-1.417zm.294 7.353V9.457h-2v6.645h2zm1.76 1.337l-2.054-2.045-1.412 1.417 2.054 2.045 1.411-1.417zm12.333-.292h-13.04v2h13.04v-2zm.989-1.395l-1.695 1.687 1.412 1.417 1.694-1.687-1.411-1.417zm-.295-4.659v5.367h2v-5.367h-2zm3.35-3.75l-3.055 3.041 1.41 1.418 3.055-3.042-1.41-1.417zm7.045-.291h-6.34v2h6.34v-2zm1.822 1.403l-1.117-1.112-1.411 1.417 1.117 1.112 1.411-1.417zm.294 6.83V9.164h-2v6.12h2zm2.947 2.518l-3.241-3.227-1.411 1.417 3.24 3.227 1.412-1.417zm38.072-.018c-8.857-1.972-18.602-2.03-26.1-1.604-3.755.213-6.962.548-9.231.83a106.559 106.559 0 00-3.365.473l-.186.03-.048.009-.013.002h-.004l.169.986.17.986h.002l.011-.002.043-.008.175-.028a103.657 103.657 0 013.293-.462c2.234-.279 5.395-.61 9.097-.82 7.42-.42 16.955-.354 25.552 1.56l.435-1.952zm2.26-2.902l-3.183 3.169 1.411 1.417 3.183-3.169-1.411-1.417zm-.295-5.937v6.645h2V8.946h-2zm1.732-2.14l-1.437 1.432 1.411 1.417 1.437-1.431-1.411-1.418zm7.688-.291h-6.982v2h6.982v-2zm3.785 3.358l-3.08-3.067-1.411 1.418 3.08 3.067 1.411-1.418zm.295 5.412v-4.703h-2v4.703h2zm1.708 1.285l-2.003-1.994-1.411 1.417 2.002 1.994 1.412-1.417zm37.437-.292h-38.143v2h38.143v-2zm1.374-1.779l-2.079 2.07 1.411 1.418 2.079-2.07-1.411-1.418zm-.295-5.962v6.671h2v-6.67h-2zm11.755-1h-10.755v2h10.755v-2zm-1-1.249v2.25h2v-2.25h-2zm3.632-4.031l-3.337 3.323 1.411 1.417 3.337-3.323-1.411-1.417zm30.327-.291h-29.622v2h29.622v-2zm2.425 2.003l-1.72-1.712-1.411 1.417 1.72 1.713 1.411-1.418zm.294 49.55V4.68h-2v48.84h2zm-.293 20.03c4.925-4.917 4.942-10.16 3.703-14.117-.611-1.955-1.524-3.593-2.279-4.737a19.05 19.05 0 00-.969-1.344 12.486 12.486 0 00-.41-.492l-.008-.008-.002-.003h-.001c-.001-.001-.001-.002-.741.672-.739.673-.739.673-.74.672l.003.003.014.016.064.074a16.494 16.494 0 011.12 1.51c.686 1.04 1.501 2.508 2.041 4.234 1.065 3.404 1.082 7.821-3.208 12.105l1.413 1.415zm.293 107.455V72.842h-2v108.162h2zm-.198 21.862c4.852-6.495 4.906-12.145 3.648-16.204a16.513 16.513 0 00-2.326-4.671 14.677 14.677 0 00-.996-1.252 10.952 10.952 0 00-.31-.333l-.091-.091-.027-.026-.008-.008-.003-.003-.001-.001c-.001 0-.001-.001-.688.727-.686.727-.686.727-.687.726l-.001-.001.002.002.013.012.061.062c.056.057.141.147.249.267.215.241.52.605.86 1.081a14.505 14.505 0 012.042 4.102c1.072 3.455 1.125 8.438-3.34 14.414l1.603 1.197zm.198 46.838v-47.436h-2v47.436h2zm-3.618 4.018l3.324-3.31-1.411-1.417-3.324 3.31 1.411 1.417zm-28.466.292h27.76v-2h-27.76v2zm-4.421-3.991l3.715 3.699 1.412-1.417-3.716-3.7-1.411 1.418zm-.295-2.057v1.348h2v-1.348h-2zm-1.6.341l2.343.625.515-1.932-2.343-.625-.515 1.932zm-32.443.034h32.701v-2h-32.701v2zm-3.806-3.378l3.1 3.086 1.411-1.417-3.1-3.087-1.411 1.418zm-.294-5.738v5.029h2v-5.029h-2zm-1.159-.738l1.453 1.447 1.411-1.418-1.453-1.447-1.411 1.418zm-9.218.291h9.923v-2h-9.923v2zm-2.408 2.809l3.113-3.1-1.411-1.418-3.114 3.101 1.412 1.417zm.294 2.443v-3.152h-2v3.152h2zm-3.127 3.529l2.833-2.821-1.412-1.417-2.832 2.82 1.411 1.418zm-9.185.291h8.479v-2h-8.479v2zm-2.301-1.88l1.595 1.589 1.412-1.418-1.596-1.589-1.411 1.418zm-.295-6.438v5.729h2v-5.729h-2zm-1.449-1.027l1.744 1.735 1.411-1.417-1.744-1.736-1.411 1.418zm-5.401.291h6.107v-2h-6.107v2zm1 9.579v-10.579h-2v10.579h2zm-6.082 1h5.082v-2h-5.082v2zm-2.298 2.699l3.003-2.991-1.411-1.417-3.003 2.99 1.411 1.418zm-10.023.291h9.318v-2h-9.318v2zm-3.619-3.192l2.913 2.901 1.411-1.418-2.913-2.9-1.411 1.417zm-4.646.291h5.351v-2h-5.351v2zm-1-11.926v10.926h2v-10.926h-2zm-5.982 1h6.982v-2h-6.982v2zm-.732 1.14l1.437-1.431-1.411-1.418-1.437 1.432 1.411 1.417zm.294 5.885v-6.594h-2v6.594h2zm-1.552 1.961l1.258-1.252-1.411-1.417-1.258 1.252 1.411 1.417zm-8.894.292h8.189v-2h-8.189v2zm-3.49-3.065l2.785 2.773 1.411-1.417-2.785-2.773-1.411 1.417zm-.295-3.993v3.285h2v-3.285h-2zm-3.036-2.607l3.33 3.316 1.412-1.417-3.33-3.316-1.412 1.417zm-9.093.291h9.799v-2h-9.799v2zm-1.011 1.418l1.717-1.709-1.412-1.417-1.716 1.709 1.411 1.417zm.294 3.863v-4.572h-2v4.572h2zm-3.466 3.867l3.172-3.158-1.411-1.417-3.172 3.158 1.411 1.417zm-34.32.291h33.615v-2H43.066v2zm-1.122 1.529l1.828-1.82-1.411-1.417-1.828 1.82 1.41 1.417zm.294 1.316v-2.025h-2v2.025h2zm-3.179 3.581l2.885-2.872-1.411-1.418-2.885 2.873 1.411 1.417zm-29.926.292h29.22v-2H9.133v2zm-3.663-3.236l2.957 2.944 1.411-1.417-2.957-2.944-1.41 1.417zm-.294-50.789v50.08h2v-50.08h-2zm.183-19.636c-4.148 5.878-4.195 10.96-3.118 14.607a15.048 15.048 0 001.993 4.196c.333.487.634.865.856 1.125a8.588 8.588 0 00.372.408l.007.007a.032.032 0 01.003.003l.001.001c0 .001.001.001.703-.711.701-.713.702-.713.702-.712l.001.001v-.001l-.01-.01a6.03 6.03 0 01-.258-.286 10.9 10.9 0 01-.725-.953 13.046 13.046 0 01-1.727-3.635c-.908-3.072-.954-7.519 2.834-12.887l-1.634-1.153zM5.176 73.417v108.098h2V73.417h-2zm.163-20.283c-3.658 5.583-3.67 10.81-2.747 14.635a19.35 19.35 0 001.722 4.53c.288.538.548.962.74 1.254a10.667 10.667 0 00.317.458l.007.008.002.003v.001c.001 0 .001.001.796-.606.794-.608.795-.607.795-.607v-.001c-.002-.002-.006-.006-.01-.013a8.812 8.812 0 01-.234-.34 14.276 14.276 0 01-.648-1.1A17.35 17.35 0 014.537 67.3c-.818-3.386-.83-8.027 2.475-13.07L5.34 53.134zm-.163-48.5v49.048h2V4.634h-2zm1.457-2.311L5.37 4.04l1.612 1.185 1.262-1.72-1.611-1.183zm127.813-.306h-12.937v2h12.937v-2zm6.712 6.272l-6.006-5.98-1.412 1.416 6.007 5.981 1.411-1.417zm.294 4.338v-3.63h-2v3.63h2zm-4.425 1.948l3.683-.982-.515-1.932-3.684.982.516 1.932zm-17.366.034h17.108v-2h-17.108v2zm-4.918-1.277l4.66 1.243.516-1.932-4.66-1.243-.516 1.932zm-.742-4.59v3.624h2V8.742h-2zm6.848-6.476l-6.509 5.725 1.321 1.502 6.509-5.725-1.321-1.502zM56.543 14.978c0 .912-.743 1.658-1.67 1.658v2a3.664 3.664 0 003.67-3.658h-2zm-1.67-1.658c.927 0 1.67.746 1.67 1.658h2a3.664 3.664 0 00-3.67-3.658v2zm-1.669 1.658c0-.912.744-1.658 1.67-1.658v-2a3.664 3.664 0 00-3.67 3.658h2zm1.67 1.658c-.926 0-1.67-.746-1.67-1.658h-2a3.664 3.664 0 003.67 3.658v-2zM200.45 39.96h-17.86v2h17.86v-2zm1 5.77v-4.77h-2v4.77h2zm-2.399 2.806l2.105-2.096-1.411-1.418-2.106 2.097 1.412 1.417zm-15.154.291h14.448v-2h-14.448v2zm-2.167-2.385l1.344 1.952 1.647-1.134-1.343-1.952-1.648 1.134zm-.139-5.49l-.037 4.916 2 .015.036-4.916-1.999-.015zm-2.291.694h-17.66v2h17.66v-2zm1.051 4.307l-.051-3.323-2 .031.051 3.323 2-.031zm-1.68 2.104l1.386-1.38-1.411-1.417-1.387 1.38 1.412 1.417zm-15.491.291h14.785v-2H163.18v2zm-2.246-1.824l1.54 1.533 1.412-1.417-1.541-1.534-1.411 1.418zm-.294-3.878v3.169h2v-3.17h-2zm35.987 123.688h-9.148v2h9.148v-2zm1.182-1.588l-1.888 1.879 1.411 1.418 1.888-1.88-1.411-1.417zm-.295-9.99v10.699h2v-10.699h-2zm-1.411-.99l1.706 1.698 1.411-1.417-1.706-1.699-1.411 1.418zm-5.067.291h5.772v-2h-5.772v2zm-2.92 3.011l3.594-3.272-1.347-1.479-3.593 3.271 1.346 1.48zm.363 10.263l-.036-11.006-2 .006.036 11.006 2-.006zm-120.018-.793h-9.148v2h9.148v-2zm-.963-10.009l-.037 11.006 2 .007.037-11.006-2-.007zM64.23 154l3.593 3.271 1.347-1.479-3.594-3.271L64.23 154zm-5.1.26h5.773v-2h-5.772v2zm-1 1.408l1.706-1.699-1.41-1.417-1.707 1.698 1.411 1.418zm.295 9.99v-10.699h-2v10.699h2zm1.593 1.171l-1.888-1.88-1.41 1.418 1.887 1.879 1.411-1.417zm27.478 27.465v-9.201h-2v9.201h2zm1.04.62l-1.334-1.329-1.411 1.417 1.334 1.329 1.412-1.417zm10.59-.291H87.831v2h11.294v-2zm.731-1.14l-1.437 1.431 1.41 1.417 1.438-1.431-1.411-1.417zm-.294-5.323v6.031h2v-6.031h-2zm-3.072-2.439l3.388 3.169 1.367-1.461-3.388-3.169-1.367 1.461zm-9.985.372l10.678-.103-.02-1.999-10.677.102.019 2zm7.794 25.194H76.64v2H94.3v-2zm-1-2.17v3.17h2v-3.17h-2zm-1.246-.824l1.54 1.533 1.411-1.417-1.54-1.534-1.411 1.418zm-14.08.291H92.76v-2H77.975v2zm-.68 1.089l1.386-1.38-1.411-1.418-1.386 1.381 1.41 1.417zm.346 2.598l-.052-3.322-2 .031.052 3.322 2-.031zm83.999.811h17.66v-2h-17.66v2zm-1-4.169v3.169h2v-3.169h-2zm1.834-2.242l-1.54 1.533 1.411 1.418 1.541-1.534-1.412-1.417zm15.491-.292H163.18v2h14.785v-2zm2.092 1.672l-1.386-1.38-1.412 1.417 1.387 1.38 1.411-1.417zm.243 4.047l.051-3.323-2-.031-.051 3.323 2 .031zm-11.857-27.21v9.201h2v-9.201h-2zm-9.688.898l10.678.102.019-2-10.678-.102-.019 2zm-2.695 2.9l3.388-3.17-1.366-1.46-3.389 3.169 1.367 1.461zm.316 5.301v-6.032h-2v6.032h2zm1.143.723l-1.437-1.432-1.411 1.418 1.437 1.431 1.411-1.417zm10.589-.292h-11.294v2h11.294v-2zm.629-1.037l-1.335 1.329 1.412 1.417 1.334-1.329-1.411-1.417zm-.294-132.743v9.2h2v-9.2h-2zm-1.041-.62l1.335 1.328 1.411-1.417-1.334-1.329-1.412 1.417zm-10.588.29h11.294v-2h-11.294v2zm-.732 1.14l1.437-1.43-1.411-1.418-1.437 1.431 1.411 1.418zm.294 5.324V60.74h-2v6.032h2zm3.072 2.438l-3.388-3.169-1.367 1.46 3.389 3.17 1.366-1.46zm9.985-.371l-10.678.102.019 2 10.678-.103-.019-2zm18.046 19.555h9.148v-2h-9.148v2zm.964 10.01l.036-11.007-2-.006-.036 11.006 2 .006zm3.267 2.528l-3.594-3.271-1.346 1.479 3.593 3.271 1.347-1.479zm5.098-.261h-5.772v2h5.772v-2zm1.001-1.407l-1.706 1.699 1.411 1.417 1.706-1.699-1.411-1.417zm-.295-9.99v10.698h2V89.274h-2zm-1.593-1.171l1.888 1.88 1.411-1.418-1.888-1.88-1.411 1.418zM76.641 43.236H94.3v-2H76.64v2zm.948 2.338l.052-3.323-2-.03-.052 3.322 2 .03zm1.092.656l-1.386-1.38-1.411 1.417 1.386 1.38 1.411-1.417zm14.08-.291H77.974v2H92.76v-2zm.834-1.243l-1.54 1.534 1.411 1.417 1.54-1.533-1.411-1.418zm-.294-2.46v3.169h2v-3.17h-2zm-7.804 17.993v9.2h2v-9.2h-2zm1.63-2.038l-1.335 1.329 1.41 1.417 1.336-1.329-1.412-1.417zm12-.291H87.831v2h11.294v-2zm2.142 1.722l-1.437-1.431-1.411 1.417 1.437 1.431 1.411-1.417zm.295 6.74v-6.031h-2v6.032h2zm-3.705 3.9l3.388-3.169-1.367-1.46-3.388 3.169 1.367 1.46zm-11.371.168l10.678.102.019-2-10.678-.102-.02 2zM68.46 85.985h-9.148v2h9.148v-2zm1.037 12.003l-.037-11.006-2 .006.037 11.006 2-.006zm-3.921 4.014l3.594-3.271-1.347-1.48-3.593 3.272 1.346 1.479zm-6.445.26h5.772v-2h-5.772v2zm-2.412-1.99l1.706 1.699 1.411-1.417-1.706-1.7-1.41 1.418zm-.294-11.407v10.698h2V88.865h-2zm2.182-2.588l-1.888 1.879 1.411 1.417 1.888-1.88-1.411-1.416zm-2.065 153.817c0 .912-.743 1.658-1.67 1.658v2a3.664 3.664 0 003.67-3.658h-2zm-1.67-1.658c.927 0 1.67.746 1.67 1.658h2a3.664 3.664 0 00-3.67-3.658v2zm-1.669 1.658c0-.912.744-1.658 1.67-1.658v-2a3.664 3.664 0 00-3.67 3.658h2zm1.67 1.658c-.926 0-1.67-.746-1.67-1.658h-2a3.664 3.664 0 003.67 3.658v-2zm146.412 2a3.664 3.664 0 003.67-3.658h-2c0 .912-.743 1.658-1.67 1.658v2zm-3.669-3.658a3.664 3.664 0 003.669 3.658v-2a1.663 1.663 0 01-1.669-1.658h-2zm3.669-3.658a3.664 3.664 0 00-3.669 3.658h2c0-.912.743-1.658 1.669-1.658v-2zm3.67 3.658a3.664 3.664 0 00-3.67-3.658v2c.927 0 1.67.746 1.67 1.658h2z" fill="#8A9AA8"/>
</svg>
