<svg width="128" height="256" fill="none" xmlns="http://www.w3.org/2000/svg">
  <path fill-rule="evenodd" clip-rule="evenodd" d="M42.462 10.586h-29.57l-3.34 3.39v227.552l3.483 3.483h30.103v-2.879l3.305-3.305h3.34l2.773 2.772v8.617h3.014l1.962 3.398h12.57l1.93-3.343h2.915v-8.459l3.483-3.483h3.411l3.27 3.27v3.305h30.6l2.737-2.736V13.785l-3.341-3.341H84.862v3.732L81.7 17.339h-3.625l-2.772-2.772V5.62h-2.966l-1.868-3.235H57.83L55.968 5.61h-3.021v8.352l-3.234 3.235h-4.194l-3.056-3.057v-3.554zm61.983 28.93V31.2l-12.866.035-3.198 3.092v5.189h16.064zm-80.606-8.032V39.8h16.065v-5.189l-3.2-3.092-12.865-.035zm.142 128.585v8.317h16.065v-5.189l-3.199-3.092-12.866-.036zm80.322-.284v8.316H88.239v-5.188l3.198-3.093 12.866-.035zm.142 56.578v8.317l-12.866-.036-3.198-3.092v-5.189h16.064zm-.544-112.629v-8.316H87.836v5.188l3.2 3.092 12.865.036zM23.697 215.937v8.316l12.866-.035 3.198-3.092v-5.189H23.697zm-.26-112.629v-8.317h16.064v5.189l-3.198 3.092-12.866.036z" fill="#576675"/>
  <path d="M12.893 10.586v-1h-.419l-.293.298.712.702zm29.57 0h1v-1h-1v1zm-32.911 3.39l-.712-.702-.288.292v.41h1zm0 227.552h-1v.414l.293.293.707-.707zm3.483 3.483l-.707.707.293.293h.414v-1zm30.103 0v1h1v-1h-1zm0-2.879l-.707-.707-.293.293v.414h1zm3.305-3.305v-1h-.414l-.293.293.707.707zm3.34 0l.708-.707-.293-.293h-.414v1zm2.773 2.772h1v-.414l-.293-.293-.707.707zm0 8.617h-1v1h1v-1zm3.014 0l.866-.5-.288-.5h-.578v1zm1.962 3.398l-.866.5.288.5h.578v-1zm12.57 0v1h.578l.288-.5-.866-.5zm1.93-3.343v-1h-.577l-.289.5.866.5zm2.915 0v1h1v-1h-1zm0-8.459l-.708-.707-.293.293v.414h1zm3.483-3.483v-1h-.415l-.293.293.708.707zm3.411 0l.708-.707-.293-.293h-.415v1zm3.27 3.27h1v-.414l-.293-.293-.707.707zm0 3.305h-1v1h1v-1zm30.6 0v1h.415l.293-.292-.708-.708zm2.737-2.736l.707.707.293-.293v-.414h-1zm0-228.383h1v-.415l-.293-.292-.707.707zm-3.341-3.341l.707-.707-.293-.293h-.414v1zm-30.245 0v-1h-1v1h1zm0 3.732l.707.707.293-.293v-.414h-1zM81.7 17.339v1h.414l.293-.293-.707-.707zm-3.625 0l-.707.707.293.293h.414v-1zm-2.772-2.772h-1v.414l.293.293.707-.707zm0-8.946h1v-1h-1v1zm-2.966 0l-.866.5.289.5h.577v-1zm-1.868-3.235l.866-.5-.288-.5h-.578v1zm-12.639 0v-1h-.577l-.289.5.866.5zM55.968 5.61v1h.577l.289-.5-.866-.5zm-3.021 0v-1h-1v1h1zm0 8.352l.707.707.293-.292v-.415h-1zm-3.234 3.235v1h.414l.293-.293-.707-.707zm-4.194 0l-.707.707.293.293h.414v-1zm-3.056-3.057h-1v.414l.292.293.707-.707zm61.982 17.06h1v-1.003l-1.003.003.003 1zm0 8.316v1h1v-1h-1zm-12.866-8.281l-.002-1-.403.001-.29.28.695.719zm-3.198 3.092l-.695-.719-.305.295v.424h1zm0 5.189h-1v1h1v-1zm-64.542.284h-1v1h1v-1zm0-8.316l.003-1-1.003-.003v1.003h1zM39.904 39.8v1h1v-1h-1zm0-5.189h1v-.424l-.306-.295-.694.72zm-3.2-3.092l.696-.719-.29-.28h-.402l-.003 1zM23.982 168.386h-1v1h1v-1zm0-8.317l.003-1-1.003-.002v1.002h1zm16.065 8.317v1h1v-1h-1zm0-5.189h1v-.424l-.305-.295-.695.719zm-3.199-3.092l.695-.719-.29-.28-.402-.001-.003 1zm67.456 7.996v1h1v-1h-1zm0-8.316h1v-1.003l-1.003.003.003 1zm-16.064 8.316h-1v1h1v-1zm0-5.188l-.695-.719-.305.294v.425h1zm3.198-3.093l-.002-1-.403.002-.29.28.695.718zm13.008 64.86l-.003 1 1.003.002v-1.002h-1zm0-8.317h1v-1h-1v1zm-12.866 8.281l-.695.719.29.28.403.001.002-1zm-3.198-3.092h-1v.424l.305.295.695-.719zm0-5.189v-1h-1v1h1zM103.9 95.418h1v-1h-1v1zm0 8.316l-.003 1 1.003.003v-1.003h-1zm-16.065-8.316v-1h-1v1h1zm0 5.188h-1v.425l.305.294.695-.719zm3.2 3.092l-.696.719.29.28.402.001.003-1zM23.696 224.253h-1v1.003l1.003-.003-.003-1zm0-8.316v-1h-1v1h1zm12.866 8.281l.002 1 .403-.001.29-.28-.695-.719zm3.198-3.092l.695.719.305-.295v-.424h-1zm0-5.189h1v-1h-1v1zM23.437 94.991v-1h-1v1h1zm0 8.317h-1v1.002l1.003-.002-.003-1zm16.064-8.317h1v-1h-1v1zm0 5.189l.695.719.305-.295v-.424h-1zm-3.198 3.092l.003 1 .402-.001.29-.28-.695-.719zm-23.41-91.686h29.57v-2h-29.57v2zm-2.629 3.092l3.341-3.39-1.424-1.404-3.341 3.39 1.424 1.404zm.288 226.85V13.976h-2v227.552h2zm3.19 2.776l-3.483-3.483-1.414 1.414 3.483 3.483 1.414-1.414zm29.396-.293H13.035v2h30.103v-2zm-1-1.879v2.879h2v-2.879h-2zm3.598-4.012l-3.305 3.305 1.414 1.414 3.305-3.305-1.414-1.414zm4.048-.293h-3.341v2h3.34v-2zm3.48 3.065l-2.773-2.772-1.414 1.414 2.772 2.772 1.414-1.414zm.292 9.324v-8.617h-2v8.617h2zm2.014-1h-3.014v2h3.014v-2zm2.828 3.898l-1.962-3.398-1.732 1 1.962 3.398 1.732-1zm11.704-.5h-12.57v2h12.57v-2zm1.064-2.843l-1.93 3.343 1.732 1 1.93-3.343-1.732-1zm3.78-.5h-2.914v2h2.915v-2zm-1-7.459v8.459h2v-8.459h-2zm3.776-4.19l-3.483 3.483 1.415 1.415 3.483-3.483-1.415-1.415zm4.12-.293H78.43v2h3.411v-2zm3.976 3.563l-3.27-3.27-1.414 1.415 3.27 3.269 1.414-1.414zm.293 4.012v-3.305h-2v3.305h2zm29.6-1h-30.6v2h30.6v-2zm2.03-2.443l-2.737 2.736 1.415 1.415 2.736-2.737-1.414-1.414zm-.293-227.676v228.383h2V13.785h-2zM114.4 11.15l3.341 3.34 1.414-1.413-3.341-3.341-1.414 1.414zm-29.538.293h30.245v-2H84.862v2zm1 2.732v-3.732h-2v3.732h2zm-3.456 3.87l3.163-3.163-1.414-1.414-3.163 3.163 1.414 1.414zm-4.332.293H81.7v-2h-3.625v2zm-3.48-3.065l2.773 2.772 1.414-1.414-2.772-2.773-1.414 1.415zm-.292-9.653v8.945h2V5.621h-2zm-1.966 1h2.966v-2h-2.966v2zm-2.734-3.735L71.47 6.12l1.732-1-1.868-3.235-1.732 1zm-11.773.5h12.64v-2h-12.64v2zm-.995 2.724l1.861-3.224-1.732-1-1.861 3.224 1.732 1zm-3.887.5h3.02v-2h-3.02v2zm1 7.352V5.61h-2v8.352h2zm-3.527 3.942l3.234-3.235-1.414-1.414-3.234 3.234 1.414 1.415zm-4.901.293h4.194v-2h-4.194v2zm-3.764-3.35l3.057 3.057 1.414-1.415-3.056-3.056-1.415 1.414zm-.293-4.261v3.554h2v-3.554h-2zM103.445 31.2v8.316h2V31.2h-2zm-11.863 1.035l12.866-.035-.006-2-12.865.035.005 2zm-2.506 2.811l3.198-3.092-1.39-1.438-3.198 3.092 1.39 1.438zm.305 4.47v-5.189h-2v5.189h2zm15.064-1H88.381v2h16.064v-2zM24.839 39.8v-8.316h-2V39.8h2zm15.065-1H23.838v2h16.065v-2zm-1-4.189v5.19h2v-5.19h-2zm-2.894-2.373l3.199 3.092 1.39-1.438-3.2-3.092-1.39 1.438zm-12.174.246l12.866.035.006-2-12.866-.035-.006 2zm1.145 135.902v-8.317h-2v8.317h2zm15.065-1H23.98v2h16.065v-2zm-1-4.189v5.189h2v-5.189h-2zm-2.894-2.373l3.199 3.092 1.39-1.438-3.199-3.092-1.39 1.438zm-12.173.245l12.865.036.006-2-12.866-.036-.005 2zm81.324 7.032v-8.316h-2v8.316h2zm-17.064 1h16.064v-2H88.239v2zm-1-6.188v5.188h2v-5.188h-2zm3.503-3.811l-3.198 3.092 1.39 1.438 3.198-3.093-1.39-1.437zm13.558-.317l-12.865.035.005 2 12.866-.035-.006-2zm1.145 65.895v-8.317h-2v8.317h2zm-13.868.964l12.865.036.006-2-12.866-.036-.005 2zm-3.891-3.373l3.198 3.092 1.39-1.438-3.198-3.092-1.39 1.438zm-.305-5.908v5.189h2v-5.189h-2zm17.064-1H88.381v2h16.064v-2zm-1.544-119.945v8.316h2v-8.316h-2zm-15.065 1h16.065v-2H87.836v2zm1 4.188v-5.188h-2v5.188h2zm2.894 2.374l-3.199-3.093-1.39 1.438 3.199 3.092 1.39-1.437zm12.173-.246l-12.865-.036-.006 2 12.866.036.005-2zM24.697 224.253v-8.316h-2v8.316h2zm11.863-1.035l-12.866.035.006 2 12.866-.035-.006-2zm2.506-2.811l-3.198 3.092 1.39 1.438 3.198-3.092-1.39-1.438zm-.305-4.47v5.189h2v-5.189h-2zm-15.064 1h16.064v-2H23.697v2zm-1.26-121.946v8.317h2v-8.317h-2zm17.064-1H23.437v2h16.064v-2zm1 6.189v-5.189h-2v5.189h2zm-3.503 3.811l3.198-3.092-1.39-1.438-3.198 3.092 1.39 1.438zm-13.558.317l12.866-.036-.006-2-12.866.036.006 2z" fill="#8A9AA8"/>
</svg>
