<svg width="282" height="256" fill="none" xmlns="http://www.w3.org/2000/svg">
  <path fill-rule="evenodd" clip-rule="evenodd" d="M119.327 10.406h-60.8l-1.499 1.737v73.683l3.252 3.36v8.969H5.452l-2.87 2.966v54.493l3.037 3.139h54.489v7.979l-3.68 3.804v72.867l2.098 2.169h59.744l3.688-6.603h4.969l4.677 14.632h18.792l4.677-14.632h4.969l3.688 6.603h59.744l2.098-2.169v-72.867l-3.68-3.804v-7.979h54.489l3.037-3.139v-54.493l-2.87-2.966H221.72v-8.968l3.252-3.361V12.142l-1.498-1.737h-60.801l-3.589 6.424h-4.011l-4.97-14.43h-18.206l-4.97 14.43h-4.011l-3.589-6.424zM101.98 38.97h15.493l.109-4.72-3.106-3.21H101.98v7.93zm62.436.214h15.493v-7.931h-12.496l-3.106 3.21.109 4.72zm-.103 48.683h15.493v7.931h-12.497l-3.106-3.21.11-4.72zm-46.737-.213h-15.493v7.93h12.497l3.106-3.21-.11-4.72zm62.333 72.685h-15.493l-.109-4.721 3.106-3.21h12.496v7.931zm-15.493 56.375h15.493v7.931h-12.496l-3.106-3.211.109-4.72zm-62.436-56.589h15.493l.109-4.72-3.106-3.211H101.98v7.931zm15.699 56.375h-15.492v7.931h12.496l3.106-3.21-.11-4.721z" fill="#576675"/>
  <path d="M58.526 10.406v-1h-.458l-.3.347.758.653zm60.801 0l.873-.488-.286-.512h-.587v1zm-62.299 1.737l-.757-.653-.243.281v.372h1zm0 73.683h-1v.404l.281.29.72-.694zm3.252 3.36h1v-.404l-.281-.29-.719.695zm0 8.969v1h1v-1h-1zm-54.828 0v-1h-.424l-.295.305.719.695zm-2.87 2.966l-.718-.695-.282.29v.405h1zm0 54.493h-1v.405l.282.291.718-.696zm3.037 3.139l-.72.695.296.305h.424v-1zm54.489 0h1v-1h-1v1zm0 7.979l.719.696.281-.291v-.405h-1zm-3.68 3.804l-.718-.695-.282.29v.405h1zm0 72.867h-1v.405l.282.291.718-.696zm2.098 2.169l-.719.695.295.305h.424v-1zm59.744 0v1h.587l.286-.512-.873-.488zm3.688-6.603v-1h-.587l-.286.512.873.488zm4.969 0l.953-.304-.222-.696h-.731v1zm4.677 14.632l-.952.304.222.696h.73v-1zm18.792 0v1h.73l.222-.696-.952-.304zm4.677-14.632v-1h-.731l-.222.696.953.304zm4.969 0l.873-.488-.286-.512h-.587v1zm3.688 6.603l-.873.488.286.512h.587v-1zm59.744 0v1h.424l.295-.305-.719-.695zm2.098-2.169l.719.696.281-.291v-.405h-1zm0-72.867h1v-.405l-.281-.29-.719.695zm-3.68-3.804h-1v.405l.281.291.719-.696zm0-7.979v-1h-1v1h1zm54.489 0v1h.424l.295-.305-.719-.695zm3.037-3.139l.718.696.282-.291v-.405h-1zm0-54.493h1v-.405l-.282-.29-.718.695zm-2.87-2.966l.719-.695-.295-.305h-.424v1zm-54.828 0h-1v1h1v-1zm0-8.968l-.719-.696-.281.291v.405h1zm3.252-3.361l.719.695.281-.291v-.404h-1zm0-73.683h1v-.372l-.243-.281-.757.653zm-1.498-1.737l.757-.653-.299-.347h-.458v1zm-60.801 0v-1h-.587l-.286.512.873.488zm-3.589 6.424v1h.587l.286-.512-.873-.488zm-4.011 0l-.946.325.232.675h.714v-1zm-4.97-14.43l.946-.327-.232-.674h-.714v1zm-18.206-.001v-1h-.714l-.232.674.946.326zm-4.97 14.43v1h.714l.232-.674-.946-.325zm-4.011 0l-.873.488.286.513h.587v-1zm-5.443 22.141v1h.977l.022-.977-.999-.023zm-15.493 0h-1v1h1v-1zm15.602-4.72l1 .023.01-.419-.291-.3-.719.695zm-3.106-3.21l.719-.696-.295-.305h-.424v1zm-12.496 0v-1h-1v1h1zm77.929 8.144v1h1v-1h-1zm-15.493 0l-.999.023.022.977h.977v-1zm15.493-7.931h1v-1h-1v1zm-12.496 0v-1h-.424l-.295.304.719.696zm-3.106 3.21l-.719-.695-.291.3.01.418 1-.023zm15.499 53.404h1v-1h-1v1zm-15.493 0v-1h-.977l-.023.977 1 .023zm15.493 7.931v1h1v-1h-1zm-12.497 0l-.718.696.294.304h.424v-1zm-3.106-3.21l-.999-.023-.01.418.291.3.718-.695zm-62.12-4.934v-1h-1v1h1zm15.493 0l1-.023-.023-.977h-.977v1zm-15.493 7.93h-1v1h1v-1zm12.497 0v1h.424l.294-.304-.718-.695zm3.106-3.21l.718.696.291-.3-.01-.419-.999.023zm46.73 67.965l-.999.023.022.977h.977v-1zm15.493 0v1h1v-1h-1zm-15.602-4.721l-.719-.695-.291.3.01.418 1-.023zm3.106-3.21v-1h-.424l-.295.305.719.695zm12.496 0h1v-1h-1v1zm0 64.306h1v-1h-1v1zm-15.493 0v-1h-.977l-.022.976.999.024zm15.493 7.931v1h1v-1h-1zm-12.496 0l-.719.695.295.305h.424v-1zm-3.106-3.211l-1-.023-.01.418.291.301.719-.696zm-46.834-61.309v1h.977l.022-.976-.999-.024zm-15.493 0h-1v1h1v-1zm15.602-4.72l1 .023.01-.418-.291-.301-.719.696zm-3.106-3.211l.719-.695-.295-.305h-.424v1zm-12.496 0v-1h-1v1h1zm.207 64.306v-1h-1v1h1zm15.492 0l1-.023-.023-.977h-.977v1zm-15.492 7.931h-1v1h1v-1zm12.496 0v1h.424l.295-.305-.719-.695zm3.106-3.21l.719.695.29-.3-.009-.418-1 .023zM58.526 11.406h60.801v-2h-60.8v2zm-.74 1.39l1.497-1.737-1.514-1.306-1.498 1.737 1.514 1.306zm.242 73.03V12.142h-2v73.683h2zm2.97 2.665l-3.251-3.36-1.438 1.39 3.252 3.361L61 88.492zm.282 9.664v-8.968h-2v8.968h2zm-55.828 1H60.28v-2H5.452v2zM3.3 101.816l2.87-2.966-1.438-1.39-2.87 2.966 1.438 1.39zm.281 53.798v-54.493h-2v54.493h2zm2.755 2.443L3.3 154.919l-1.437 1.391 3.036 3.138 1.437-1.391zm53.771-.304H5.618v2h54.49v-2zm1 8.979v-7.979h-2v7.979h2zm-3.961 4.499l3.68-3.803-1.438-1.391-3.68 3.804 1.438 1.39zm.281 72.172v-72.867h-2v72.867h2zm1.817 1.474l-2.098-2.169-1.438 1.391 2.098 2.168 1.438-1.39zm59.025-.305H58.526v2h59.744v-2zm2.815-6.091l-3.688 6.603 1.746.976 3.688-6.603-1.746-.976zm5.842-.512h-4.969v2h4.969v-2zm5.63 15.327l-4.677-14.631-1.905.608 4.677 14.632 1.905-.609zm17.839-.695h-18.792v2h18.792v-2zm3.724-13.936l-4.677 14.631 1.905.609 4.677-14.632-1.905-.608zm5.922-.696h-4.969v2h4.969v-2zm4.561 7.115l-3.688-6.603-1.746.976 3.688 6.603 1.746-.976zm58.871-.512H163.73v2h59.744v-2zm1.379-1.864l-2.098 2.169 1.438 1.39 2.098-2.168-1.438-1.391zm-.281-72.172v72.867h2v-72.867h-2zm-3.399-3.108l3.68 3.803 1.438-1.39-3.68-3.804-1.438 1.391zm-.281-8.675v7.979h2v-7.979h-2zm55.489-1h-54.489v2h54.489v-2zm2.318-2.834l-3.036 3.138 1.437 1.391 3.036-3.138-1.437-1.391zm-.281-53.798v54.493h2v-54.493h-2zm-2.589-2.27l2.87 2.965 1.437-1.39-2.869-2.966-1.438 1.39zm-54.109.304h54.828v-2H221.72v2zm-1-9.968v8.968h2v-8.968h-2zm3.533-4.057L221 88.491l1.438 1.391 3.252-3.361-1.438-1.39zm-.281-72.987v73.683h2V12.142h-2zm-1.255-1.084l1.498 1.737 1.514-1.306-1.498-1.737-1.514 1.306zm-60.044.347h60.801v-2h-60.801v2zm-2.716 5.911l3.589-6.424-1.746-.975-3.589 6.424 1.746.976zm-4.884.513h4.011v-2h-4.011v2zm-5.915-15.105l4.969 14.43 1.891-.65-4.969-14.432-1.891.652zm-17.261.674h18.206v-2h-18.206v2zm-4.024 13.756l4.969-14.43-1.891-.652-4.969 14.431 1.891.651zm-4.957.675h4.011v-2h-4.011v2zm-4.462-6.937l3.589 6.424 1.746-.975-3.589-6.424-1.746.975zm-.981 27.077H101.98v2h15.493v-2zm-.891-3.744l-.109 4.72 1.999.047.11-4.72-2-.047zm-2.824-2.492l3.105 3.21 1.438-1.39-3.106-3.21-1.437 1.39zm-11.778.305h12.496v-2H101.98v2zm1 6.931v-7.93h-2v7.93h2zm76.929-.786h-15.493v2h15.493v-2zm-1-6.931v7.93h2v-7.93h-2zm-11.496 1h12.496v-2h-12.496v2zm-2.388 2.905l3.106-3.21-1.437-1.39-3.106 3.21 1.437 1.39zm.391 4.002l-.11-4.72-1.999.046.11 4.72 1.999-.046zm14.39 47.707h-15.493v2h15.493v-2zm1 8.931v-7.93h-2v7.93h2zm-13.497 1h12.497v-2h-12.497v2zm-3.824-3.514l3.106 3.21 1.437-1.391-3.106-3.21-1.437 1.39zm-.172-5.44l-.109 4.721 1.999.046.11-4.72-2-.047zm-61.23.81h15.493v-2h-15.493v2zm1 6.93v-7.93h-2v7.93h2zm11.497-1h-12.497v2h12.497v-2zm2.387-2.905l-3.106 3.21 1.437 1.391 3.106-3.21-1.437-1.39zm-.391-4.002l.11 4.72 1.999-.046-.109-4.72-2 .046zm47.84 73.662h15.493v-2h-15.493v2zm-1.109-5.698l.11 4.721 1.999-.046-.11-4.721-1.999.046zm3.387-3.928l-3.106 3.21 1.437 1.39 3.106-3.21-1.437-1.39zm13.215-.305h-12.496v2h12.496v-2zm1 8.931v-7.931h-2v7.931h2zm-1 55.375h-15.493v2h15.493v-2zm1 8.931v-7.931h-2v7.931h2zm-13.496 1h12.496v-2h-12.496v2zm-3.825-3.515l3.106 3.21 1.437-1.391-3.106-3.21-1.437 1.391zm-.171-5.44l-.11 4.721 1.999.047.11-4.721-1.999-.047zm-45.944-57.565H101.98v2h15.493v-2zm-.891-3.744l-.109 4.721 1.999.047.11-4.721-2-.047zm-2.824-2.491l3.105 3.21 1.438-1.391-3.106-3.21-1.437 1.391zm-11.778.304h12.496v-2H101.98v2zm1 6.931v-7.931h-2v7.931h2zm-.793 57.375h15.492v-2h-15.492v2zm1 6.931V216.5h-2v7.931h2zm11.496-1h-12.496v2h12.496v-2zm2.387-2.905l-3.106 3.21 1.438 1.39 3.106-3.21-1.438-1.39zm-.39-4.003l.109 4.721 2-.046-.11-4.721-1.999.046z" fill="#8A9AA8"/>
</svg>
