<svg width="128" height="256" fill="none" xmlns="http://www.w3.org/2000/svg">
  <g clip-path="url(#clip0)">
    <path fill-rule="evenodd" clip-rule="evenodd" d="M51.245 242.282H8.343l-4.109-4.646-.037-39.752 4.112-4.75h47.868v-64.582H49.75l-1.974-2.222v-3.02l-23.284-20.943V70.153l21.692-19.51h8.323l3.627-3.263h12.032l4.48 4.029h8.748l19.938 17.933v32.801l-22.045 19.829v4.55l-2.213 2.497h-6.167v64.117h45.895l5.007 4.806v38.897l-4.816 5.266H76.576l-4.65 4.183v4.575l-2.105 2.534H57.464l-2.036-2.472v-4.881l-4.183-3.762zm23.43-133.143h-21.4l-10.395-7.816V74.581l4.42-3.975h6.694L60.227 65h8.011l6.545 5.887h5.92l4.4 3.957v24.915l-10.428 9.38z" fill="#576675"/>
    <path d="M8.343 242.282l-.75.663.3.337h.45v-1zm42.902 0l.669-.743-.285-.257h-.384v1zm-47.01-4.646l-1 .001v.378l.25.284.75-.663zm-.038-39.752l-.756-.655-.244.282v.374l1-.001zm4.112-4.75v-1h-.456l-.3.345.756.655zm47.868 0v1h1v-1h-1zm0-64.582h1v-1h-1v1zm-6.428 0l-.747.664.298.336h.45v-1zm-1.974-2.222h-1v.381l.253.284.747-.665zm0-3.02h1v-.446l-.331-.298-.669.744zm-23.284-20.943h-1v.445l.33.298.67-.743zm0-32.214l-.67-.743-.33.298v.445h1zm21.692-19.51v-1H45.8l-.285.256.668.743zm8.323 0v1h.383l.286-.257-.669-.744zm3.627-3.263v-1h-.384l-.285.257.669.743zm12.032 0l.67-.743-.286-.257h-.384v1zm4.48 4.029l-.67.743.286.257h.383v-1zm8.748 0l.669-.744-.285-.256h-.384v1zm19.938 17.933h1v-.446l-.331-.298-.669.744zm0 32.801l.669.744.331-.298v-.446h-1zm-22.045 19.829l-.669-.743-.331.297v.446h1zm0 4.55l.748.663.252-.284v-.379h-1zm-2.213 2.497v1h.45l.299-.337-.749-.663zm-6.167 0v-1h-1v1h1zm0 64.117h-1v1h1v-1zm45.895 0l.693-.721-.291-.279h-.402v1zm5.007 4.806h1v-.427l-.307-.295-.693.722zm0 38.897l.738.675.262-.287v-.388h-1zm-4.816 5.266v1h.441l.297-.325-.738-.675zm-42.416 0v-1h-.383l-.285.257.668.743zm-4.65 4.183l-.669-.743-.331.298v.445h1zm0 4.575l.769.64.23-.278v-.362h-1zm-2.105 2.534v1h.47l.3-.361-.77-.639zm-12.357 0l-.771.635.3.365h.471v-1zm-2.036-2.472h-1v.358l.228.277.772-.635zm0-4.881h1v-.445l-.332-.298-.668.743zm-2.153-136.905l-.602.8.267.2h.335v-1zm21.4 0v1h.383l.285-.256-.668-.744zm-31.795-7.816h-1v.499l.399.3.601-.799zm0-26.742l-.669-.743-.331.298v.445h1zm4.42-3.975v-1h-.384l-.285.257.669.743zm6.694 0v1h.384l.285-.256-.669-.744zM60.227 65v-1h-.384l-.285.257.669.743zm8.011 0l.67-.743-.286-.257h-.384v1zm6.545 5.887l-.668.743.285.257h.383v-1zm5.92 0l.67-.744-.286-.256h-.383v1zm4.4 3.957h1v-.445l-.331-.299-.669.744zm0 24.915l.669.744.331-.298v-.446h-1zM8.343 243.282h42.902v-2H8.343v2zm-4.858-4.983l4.109 4.646 1.498-1.325-4.108-4.646-1.499 1.325zm-.288-40.414l.037 39.752 2-.002-.037-39.752-2 .002zm4.356-5.406l-4.112 4.75 1.512 1.309 4.112-4.75-1.512-1.309zm48.624-.345H8.31v2h47.868v-2zm-1-63.582v64.582h2v-64.582h-2zm-5.428 1h6.428v-2H49.75v2zm-2.721-2.557l1.974 2.221 1.495-1.328-1.974-2.222-1.495 1.329zm-.253-3.685v3.02h2v-3.02h-2zm-22.953-20.2l23.284 20.943 1.338-1.487-23.285-20.943-1.337 1.487zm-.331-32.957v32.214h2V70.153h-2zM45.514 49.9L23.822 69.41l1.337 1.488 21.693-19.511-1.337-1.487zm8.992-.257h-8.323v2h8.323v-2zm2.958-3.005L53.837 49.9l1.338 1.487 3.626-3.262-1.337-1.487zm12.701-.257H58.132v2h12.033v-2zm5.148 4.285l-4.479-4.028-1.337 1.487 4.478 4.028 1.338-1.487zm8.08-.256h-8.749v2h8.75v-2zM104 68.599L84.062 50.664l-1.337 1.487 19.937 17.933L104 68.598zm.331 33.544V69.342h-2v32.801h2zm-22.377 20.573L104 102.887l-1.338-1.487-22.045 19.829 1.337 1.487zm.332 3.806v-4.55h-2v4.55h2zm-2.464 3.16l2.212-2.497-1.497-1.326-2.212 2.497 1.497 1.326zm-6.916.337h6.167v-2h-6.167v2zm1 63.117v-64.117h-2v64.117h2zm44.895-1H72.906v2h45.895v-2zm5.7 5.084l-5.007-4.805-1.385 1.442 5.007 4.806 1.385-1.443zm.307 39.619v-38.897h-2v38.897h2zm-5.078 5.941l4.816-5.266-1.476-1.35-4.816 5.266 1.476 1.35zm-43.154.325h42.416v-2H76.576v2zm-3.981 3.927l4.65-4.183-1.337-1.487-4.651 4.183 1.337 1.487zm.33 3.831v-4.575h-2v4.575h2zm-2.335 3.173l2.105-2.533-1.538-1.279-2.105 2.533 1.538 1.279zm-13.126.361h12.357v-2H57.464v2zm-2.808-2.837l2.037 2.472 1.543-1.271-2.037-2.472-1.543 1.271zm-.228-5.516v4.881h2v-4.881h-2zm-3.851-3.018l4.182 3.762 1.337-1.487-4.182-3.762-1.337 1.487zm2.698-132.887h21.4v-2h-21.4v2zm-10.996-8.017l10.394 7.817 1.203-1.599-10.395-7.817-1.202 1.599zm-.399-27.54v26.741h2V74.581h-2zm4.751-4.72l-4.42 3.976 1.338 1.487 4.42-3.975-1.338-1.487zm7.363-.256H47.3v2h6.694v-2zm5.564-5.35l-6.233 5.606 1.338 1.488 6.233-5.606-1.338-1.487zm8.68-.256h-8.011v2h8.011v-2zm7.214 6.143l-6.545-5.886-1.337 1.486 6.545 5.887 1.337-1.487zm5.252-.256h-5.92v2h5.92v-2zm5.068 4.213l-4.4-3.957-1.337 1.487 4.4 3.958 1.337-1.487zm.331 25.66V74.843h-2v24.915h2zm-10.76 10.123l10.429-9.38-1.338-1.487-10.428 9.38 1.337 1.487z" fill="#8A9AA8"/>
  </g>
  <defs>
    <clipPath id="clip0">
      <path d="M0 0h128v256H0V0z" fill="#fff"/>
    </clipPath>
  </defs>
</svg>
